<?xml version="1.0" encoding="UTF-8"?>
<svg xmlns="http://www.w3.org/2000/svg" xmlns:xlink="http://www.w3.org/1999/xlink" width="40px" height="30px" viewBox="0 0 40 30" version="1.1">
<defs>
<filter id="alpha" filterUnits="objectBoundingBox" x="0%" y="0%" width="100%" height="100%">
  <feColorMatrix type="matrix" in="SourceGraphic" values="0 0 0 0 1 0 0 0 0 1 0 0 0 0 1 0 0 0 1 0"/>
</filter>
<mask id="mask0">
  <g filter="url(#alpha)">
<rect x="0" y="0" width="40" height="30" style="fill:rgb(0%,0%,0%);fill-opacity:0.984314;stroke:none;"/>
  </g>
</mask>
<clipPath id="clip1">
  <rect x="0" y="0" width="40" height="30"/>
</clipPath>
<g id="surface5" clip-path="url(#clip1)">
<path style=" stroke:none;fill-rule:evenodd;fill:rgb(55.686275%,35.294118%,18.823529%);fill-opacity:1;" d="M 27.886719 5.605469 C 27.953125 5.597656 28.007812 5.613281 28.058594 5.65625 C 28.09375 5.972656 28.15625 6.28125 28.253906 6.578125 C 28.269531 6.5625 28.285156 6.546875 28.300781 6.527344 C 28.46875 7.265625 28.671875 7.996094 28.90625 8.714844 C 28.757812 9.792969 28.578125 10.871094 28.375 11.941406 C 28.503906 12.070312 28.632812 12.203125 28.761719 12.332031 C 28.59375 12.460938 28.445312 12.613281 28.324219 12.792969 C 28.445312 12.921875 28.558594 13.058594 28.664062 13.203125 C 28.480469 13.382812 28.300781 13.566406 28.132812 13.761719 C 28.210938 13.835938 28.285156 13.917969 28.347656 14.003906 C 28.367188 13.988281 28.382812 13.972656 28.398438 13.957031 C 28.429688 14.054688 28.429688 14.152344 28.398438 14.246094 C 28.152344 14.550781 27.917969 14.859375 27.695312 15.167969 C 27.480469 15.144531 27.269531 15.097656 27.0625 15.023438 C 26.429688 14.78125 25.800781 14.554688 25.167969 14.34375 C 24.875 14.171875 24.550781 14.066406 24.199219 14.027344 C 24.050781 13.96875 23.921875 13.878906 23.8125 13.761719 C 23.007812 13.03125 22.222656 12.269531 21.457031 11.480469 C 21.433594 11.433594 21.425781 11.386719 21.433594 11.335938 C 23.546875 9.476562 25.664062 7.632812 27.792969 5.800781 C 27.851562 5.75 27.882812 5.683594 27.886719 5.605469 Z M 27.886719 5.605469 "/>
</g>
<mask id="mask1">
  <g filter="url(#alpha)">
<rect x="0" y="0" width="40" height="30" style="fill:rgb(0%,0%,0%);fill-opacity:0.988235;stroke:none;"/>
  </g>
</mask>
<clipPath id="clip2">
  <rect x="0" y="0" width="40" height="30"/>
</clipPath>
<g id="surface8" clip-path="url(#clip2)">
<path style=" stroke:none;fill-rule:evenodd;fill:rgb(55.686275%,35.294118%,18.823529%);fill-opacity:1;" d="M 12.015625 5.605469 C 12.007812 5.644531 12.015625 5.675781 12.039062 5.703125 C 14.128906 7.542969 16.207031 9.390625 18.277344 11.238281 C 18.339844 11.28125 18.402344 11.3125 18.472656 11.335938 C 18.476562 11.386719 18.46875 11.433594 18.445312 11.480469 C 17.617188 12.269531 16.800781 13.0625 15.996094 13.859375 C 15.960938 13.875 15.929688 13.890625 15.898438 13.90625 C 15.761719 13.96875 15.617188 14.007812 15.460938 14.027344 C 15.433594 14.046875 15.417969 14.070312 15.414062 14.101562 C 15.242188 14.179688 15.066406 14.242188 14.878906 14.296875 C 14.699219 14.320312 14.519531 14.363281 14.34375 14.417969 C 14.316406 14.4375 14.300781 14.460938 14.296875 14.492188 C 14.019531 14.546875 13.742188 14.621094 13.472656 14.707031 C 13.445312 14.726562 13.425781 14.75 13.421875 14.78125 C 13.023438 14.9375 12.621094 15.082031 12.207031 15.21875 C 12.207031 15.203125 12.207031 15.1875 12.207031 15.167969 C 12.21875 15.089844 12.1875 15.039062 12.113281 15.023438 C 12.019531 14.921875 11.9375 14.808594 11.867188 14.683594 C 11.890625 14.5625 11.839844 14.5 11.722656 14.492188 C 11.605469 14.355469 11.507812 14.210938 11.433594 14.054688 C 11.511719 14.0625 11.5625 14.03125 11.578125 13.957031 C 11.578125 13.941406 11.578125 13.925781 11.578125 13.90625 C 11.625 13.890625 11.660156 13.859375 11.675781 13.8125 C 11.714844 13.796875 11.746094 13.773438 11.773438 13.738281 C 11.582031 13.574219 11.421875 13.386719 11.285156 13.179688 C 11.320312 13.082031 11.386719 13.015625 11.480469 12.984375 C 11.578125 12.984375 11.625 12.9375 11.625 12.839844 C 11.480469 12.664062 11.335938 12.484375 11.1875 12.304688 C 11.226562 12.230469 11.277344 12.167969 11.335938 12.113281 C 11.394531 12.113281 11.445312 12.089844 11.480469 12.039062 C 11.351562 10.925781 11.203125 9.851562 11.042969 8.8125 C 11.050781 8.664062 11.066406 8.519531 11.09375 8.375 C 11.304688 7.730469 11.5 7.085938 11.675781 6.433594 C 11.730469 6.417969 11.761719 6.378906 11.773438 6.3125 C 11.769531 6.257812 11.753906 6.21875 11.722656 6.1875 C 11.722656 6.15625 11.738281 6.140625 11.773438 6.140625 C 11.894531 6.054688 11.894531 5.972656 11.773438 5.898438 C 11.832031 5.8125 11.863281 5.714844 11.867188 5.605469 C 11.917969 5.605469 11.964844 5.605469 12.015625 5.605469 Z M 12.015625 5.605469 "/>
</g>
<mask id="mask2">
  <g filter="url(#alpha)">
<rect x="0" y="0" width="40" height="30" style="fill:rgb(0%,0%,0%);fill-opacity:0.964706;stroke:none;"/>
  </g>
</mask>
<clipPath id="clip3">
  <rect x="0" y="0" width="40" height="30"/>
</clipPath>
<g id="surface11" clip-path="url(#clip3)">
<path style=" stroke:none;fill-rule:evenodd;fill:rgb(90.588235%,55.686275%,20.784314%);fill-opacity:1;" d="M 12.015625 5.605469 C 12.632812 5.914062 13.265625 6.199219 13.90625 6.457031 C 13.878906 6.476562 13.863281 6.5 13.859375 6.527344 C 13.894531 6.648438 13.945312 6.648438 14.003906 6.527344 C 14.273438 6.675781 14.578125 6.816406 14.925781 6.941406 C 14.867188 6.976562 14.867188 7 14.925781 7.015625 C 14.960938 7.144531 14.992188 7.144531 15.023438 7.015625 C 15.339844 7.164062 15.648438 7.328125 15.945312 7.5 C 15.980469 7.628906 16.011719 7.628906 16.042969 7.5 C 16.375 7.625 16.683594 7.789062 16.964844 7.984375 C 17 8.113281 17.03125 8.113281 17.0625 7.984375 C 17.175781 8.050781 17.289062 8.113281 17.402344 8.179688 C 17.765625 9.226562 18.121094 10.28125 18.472656 11.335938 C 18.402344 11.3125 18.339844 11.28125 18.277344 11.238281 C 16.207031 9.390625 14.128906 7.542969 12.039062 5.703125 C 12.015625 5.675781 12.007812 5.644531 12.015625 5.605469 Z M 12.015625 5.605469 "/>
</g>
<mask id="mask3">
  <g filter="url(#alpha)">
<rect x="0" y="0" width="40" height="30" style="fill:rgb(0%,0%,0%);fill-opacity:0.356863;stroke:none;"/>
  </g>
</mask>
<clipPath id="clip4">
  <rect x="0" y="0" width="40" height="30"/>
</clipPath>
<g id="surface14" clip-path="url(#clip4)">
<path style=" stroke:none;fill-rule:evenodd;fill:rgb(52.54902%,43.529412%,8.627451%);fill-opacity:1;" d="M 11.773438 5.898438 C 11.894531 5.972656 11.894531 6.054688 11.773438 6.140625 C 11.835938 6.058594 11.835938 5.980469 11.773438 5.898438 Z M 11.773438 5.898438 "/>
</g>
<mask id="mask4">
  <g filter="url(#alpha)">
<rect x="0" y="0" width="40" height="30" style="fill:rgb(0%,0%,0%);fill-opacity:0.968627;stroke:none;"/>
  </g>
</mask>
<clipPath id="clip5">
  <rect x="0" y="0" width="40" height="30"/>
</clipPath>
<g id="surface17" clip-path="url(#clip5)">
<path style=" stroke:none;fill-rule:evenodd;fill:rgb(90.588235%,55.686275%,20.392157%);fill-opacity:1;" d="M 27.886719 5.605469 C 27.882812 5.683594 27.851562 5.75 27.792969 5.800781 C 25.664062 7.632812 23.546875 9.476562 21.433594 11.335938 C 21.722656 10.386719 22.054688 9.433594 22.425781 8.472656 C 22.453125 8.375 22.460938 8.277344 22.453125 8.179688 C 23.695312 7.597656 24.910156 7.015625 26.09375 6.433594 C 26.140625 6.5625 26.1875 6.5625 26.238281 6.433594 C 26.351562 6.3125 26.496094 6.238281 26.675781 6.214844 C 26.660156 6.199219 26.640625 6.179688 26.625 6.164062 C 26.707031 6.148438 26.789062 6.132812 26.867188 6.117188 C 26.851562 6.101562 26.835938 6.085938 26.820312 6.066406 C 27.183594 5.925781 27.539062 5.773438 27.886719 5.605469 Z M 27.886719 5.605469 "/>
</g>
<mask id="mask5">
  <g filter="url(#alpha)">
<rect x="0" y="0" width="40" height="30" style="fill:rgb(0%,0%,0%);fill-opacity:0.360784;stroke:none;"/>
  </g>
</mask>
<clipPath id="clip6">
  <rect x="0" y="0" width="40" height="30"/>
</clipPath>
<g id="surface20" clip-path="url(#clip6)">
<path style=" stroke:none;fill-rule:evenodd;fill:rgb(76.862745%,18.823529%,10.196078%);fill-opacity:1;" d="M 11.722656 6.1875 C 11.753906 6.21875 11.769531 6.257812 11.773438 6.3125 C 11.761719 6.378906 11.730469 6.417969 11.675781 6.433594 C 11.714844 6.355469 11.730469 6.277344 11.722656 6.1875 Z M 11.722656 6.1875 "/>
</g>
<mask id="mask6">
  <g filter="url(#alpha)">
<rect x="0" y="0" width="40" height="30" style="fill:rgb(0%,0%,0%);fill-opacity:0.552941;stroke:none;"/>
  </g>
</mask>
<clipPath id="clip7">
  <rect x="0" y="0" width="40" height="30"/>
</clipPath>
<g id="surface23" clip-path="url(#clip7)">
<path style=" stroke:none;fill-rule:evenodd;fill:rgb(94.509804%,73.333333%,13.333333%);fill-opacity:1;" d="M 26.09375 6.433594 C 26.140625 6.433594 26.1875 6.433594 26.238281 6.433594 C 26.1875 6.5625 26.140625 6.5625 26.09375 6.433594 Z M 26.09375 6.433594 "/>
</g>
<mask id="mask7">
  <g filter="url(#alpha)">
<rect x="0" y="0" width="40" height="30" style="fill:rgb(0%,0%,0%);fill-opacity:0.584314;stroke:none;"/>
  </g>
</mask>
<clipPath id="clip8">
  <rect x="0" y="0" width="40" height="30"/>
</clipPath>
<g id="surface26" clip-path="url(#clip8)">
<path style=" stroke:none;fill-rule:evenodd;fill:rgb(94.509804%,73.333333%,13.333333%);fill-opacity:1;" d="M 13.859375 6.527344 C 13.90625 6.527344 13.957031 6.527344 14.003906 6.527344 C 13.945312 6.648438 13.894531 6.648438 13.859375 6.527344 Z M 13.859375 6.527344 "/>
</g>
<mask id="mask8">
  <g filter="url(#alpha)">
<rect x="0" y="0" width="40" height="30" style="fill:rgb(0%,0%,0%);fill-opacity:0.027451;stroke:none;"/>
  </g>
</mask>
<clipPath id="clip9">
  <rect x="0" y="0" width="40" height="30"/>
</clipPath>
<g id="surface29" clip-path="url(#clip9)">
<path style=" stroke:none;fill-rule:evenodd;fill:rgb(96.470588%,82.745098%,8.627451%);fill-opacity:1;" d="M 14.925781 7.015625 C 14.960938 7.015625 14.992188 7.015625 15.023438 7.015625 C 14.992188 7.144531 14.960938 7.144531 14.925781 7.015625 Z M 14.925781 7.015625 "/>
</g>
<mask id="mask9">
  <g filter="url(#alpha)">
<rect x="0" y="0" width="40" height="30" style="fill:rgb(0%,0%,0%);fill-opacity:0.211765;stroke:none;"/>
  </g>
</mask>
<clipPath id="clip10">
  <rect x="0" y="0" width="40" height="30"/>
</clipPath>
<g id="surface32" clip-path="url(#clip10)">
<path style=" stroke:none;fill-rule:evenodd;fill:rgb(96.470588%,83.529412%,7.45098%);fill-opacity:1;" d="M 15.945312 7.5 C 15.980469 7.5 16.011719 7.5 16.042969 7.5 C 16.011719 7.628906 15.980469 7.628906 15.945312 7.5 Z M 15.945312 7.5 "/>
</g>
<mask id="mask10">
  <g filter="url(#alpha)">
<rect x="0" y="0" width="40" height="30" style="fill:rgb(0%,0%,0%);fill-opacity:0.137255;stroke:none;"/>
  </g>
</mask>
<clipPath id="clip11">
  <rect x="0" y="0" width="40" height="30"/>
</clipPath>
<g id="surface35" clip-path="url(#clip11)">
<path style=" stroke:none;fill-rule:evenodd;fill:rgb(97.254902%,87.058824%,6.27451%);fill-opacity:1;" d="M 16.964844 7.984375 C 17 7.984375 17.03125 7.984375 17.0625 7.984375 C 17.03125 8.113281 17 8.113281 16.964844 7.984375 Z M 16.964844 7.984375 "/>
</g>
<mask id="mask11">
  <g filter="url(#alpha)">
<rect x="0" y="0" width="40" height="30" style="fill:rgb(0%,0%,0%);fill-opacity:0.984314;stroke:none;"/>
  </g>
</mask>
<clipPath id="clip12">
  <rect x="0" y="0" width="40" height="30"/>
</clipPath>
<g id="surface38" clip-path="url(#clip12)">
<path style=" stroke:none;fill-rule:evenodd;fill:rgb(96.862745%,60.784314%,20.392157%);fill-opacity:1;" d="M 17.402344 8.179688 C 19.085938 8.179688 20.769531 8.179688 22.453125 8.179688 C 22.460938 8.277344 22.453125 8.375 22.425781 8.472656 C 22.054688 9.433594 21.722656 10.386719 21.433594 11.335938 C 21.398438 11.355469 21.371094 11.386719 21.359375 11.433594 C 21.261719 12.886719 21.171875 14.34375 21.09375 15.800781 C 20.984375 17.238281 20.9375 18.679688 20.945312 20.121094 C 20.972656 20.015625 21.019531 19.9375 21.09375 19.878906 C 21.097656 19.910156 21.113281 19.933594 21.140625 19.953125 C 21.0625 20.070312 21 20.203125 20.945312 20.339844 C 20.308594 20.378906 19.675781 20.371094 19.054688 20.316406 C 18.980469 18.925781 18.910156 17.53125 18.835938 16.140625 C 18.824219 16.019531 18.800781 15.90625 18.761719 15.800781 C 18.761719 15.785156 18.761719 15.769531 18.761719 15.753906 C 18.691406 14.425781 18.609375 13.097656 18.519531 11.773438 C 18.523438 11.648438 18.539062 11.527344 18.566406 11.40625 C 18.550781 11.359375 18.519531 11.332031 18.472656 11.335938 C 18.121094 10.28125 17.765625 9.226562 17.402344 8.179688 Z M 17.402344 8.179688 "/>
</g>
<mask id="mask12">
  <g filter="url(#alpha)">
<rect x="0" y="0" width="40" height="30" style="fill:rgb(0%,0%,0%);fill-opacity:0.00392157;stroke:none;"/>
  </g>
</mask>
<clipPath id="clip13">
  <rect x="0" y="0" width="40" height="30"/>
</clipPath>
<g id="surface41" clip-path="url(#clip13)">
<path style=" stroke:none;fill-rule:evenodd;fill:rgb(45.490196%,51.372549%,5.882353%);fill-opacity:1;" d="M 11.335938 12.113281 C 11.300781 12.046875 11.300781 12.046875 11.335938 12.113281 Z M 11.335938 12.113281 "/>
</g>
<mask id="mask13">
  <g filter="url(#alpha)">
<rect x="0" y="0" width="40" height="30" style="fill:rgb(0%,0%,0%);fill-opacity:0.447059;stroke:none;"/>
  </g>
</mask>
<clipPath id="clip14">
  <rect x="0" y="0" width="40" height="30"/>
</clipPath>
<g id="surface44" clip-path="url(#clip14)">
<path style=" stroke:none;fill-rule:evenodd;fill:rgb(73.72549%,22.745098%,11.372549%);fill-opacity:1;" d="M 11.625 12.839844 C 11.625 12.9375 11.578125 12.984375 11.480469 12.984375 C 11.480469 12.886719 11.527344 12.839844 11.625 12.839844 Z M 11.625 12.839844 "/>
</g>
<mask id="mask14">
  <g filter="url(#alpha)">
<rect x="0" y="0" width="40" height="30" style="fill:rgb(0%,0%,0%);fill-opacity:0.00392157;stroke:none;"/>
  </g>
</mask>
<clipPath id="clip15">
  <rect x="0" y="0" width="40" height="30"/>
</clipPath>
<g id="surface47" clip-path="url(#clip15)">
<path style=" stroke:none;fill-rule:evenodd;fill:rgb(47.45098%,41.176471%,21.568627%);fill-opacity:1;" d="M 11.675781 13.8125 C 11.640625 13.746094 11.640625 13.746094 11.675781 13.8125 Z M 11.675781 13.8125 "/>
</g>
<mask id="mask15">
  <g filter="url(#alpha)">
<rect x="0" y="0" width="40" height="30" style="fill:rgb(0%,0%,0%);fill-opacity:0.00392157;stroke:none;"/>
  </g>
</mask>
<clipPath id="clip16">
  <rect x="0" y="0" width="40" height="30"/>
</clipPath>
<g id="surface50" clip-path="url(#clip16)">
<path style=" stroke:none;fill-rule:evenodd;fill:rgb(90.980392%,6.666667%,2.745098%);fill-opacity:1;" d="M 11.578125 13.90625 C 11.546875 13.84375 11.546875 13.84375 11.578125 13.90625 Z M 11.578125 13.90625 "/>
</g>
<mask id="mask16">
  <g filter="url(#alpha)">
<rect x="0" y="0" width="40" height="30" style="fill:rgb(0%,0%,0%);fill-opacity:0.968627;stroke:none;"/>
  </g>
</mask>
<clipPath id="clip17">
  <rect x="0" y="0" width="40" height="30"/>
</clipPath>
<g id="surface53" clip-path="url(#clip17)">
<path style=" stroke:none;fill-rule:evenodd;fill:rgb(88.235294%,55.686275%,20%);fill-opacity:1;" d="M 23.8125 13.761719 C 23.921875 13.878906 24.050781 13.96875 24.199219 14.027344 C 24.550781 14.066406 24.875 14.171875 25.167969 14.34375 C 24.773438 14.285156 24.394531 14.171875 24.027344 14.003906 C 23.984375 14.015625 23.945312 14.03125 23.90625 14.054688 C 23.855469 13.964844 23.789062 13.882812 23.714844 13.8125 C 23.734375 13.773438 23.769531 13.753906 23.8125 13.761719 Z M 23.8125 13.761719 "/>
</g>
<mask id="mask17">
  <g filter="url(#alpha)">
<rect x="0" y="0" width="40" height="30" style="fill:rgb(0%,0%,0%);fill-opacity:0.301961;stroke:none;"/>
  </g>
</mask>
<clipPath id="clip18">
  <rect x="0" y="0" width="40" height="30"/>
</clipPath>
<g id="surface56" clip-path="url(#clip18)">
<path style=" stroke:none;fill-rule:evenodd;fill:rgb(81.960784%,15.294118%,7.45098%);fill-opacity:1;" d="M 11.578125 13.957031 C 11.5625 14.03125 11.511719 14.0625 11.433594 14.054688 C 11.46875 14.007812 11.519531 13.976562 11.578125 13.957031 Z M 11.578125 13.957031 "/>
</g>
<mask id="mask18">
  <g filter="url(#alpha)">
<rect x="0" y="0" width="40" height="30" style="fill:rgb(0%,0%,0%);fill-opacity:0.909804;stroke:none;"/>
  </g>
</mask>
<clipPath id="clip19">
  <rect x="0" y="0" width="40" height="30"/>
</clipPath>
<g id="surface59" clip-path="url(#clip19)">
<path style=" stroke:none;fill-rule:evenodd;fill:rgb(73.72549%,46.666667%,19.607843%);fill-opacity:1;" d="M 15.898438 13.90625 C 15.761719 14.027344 15.601562 14.089844 15.414062 14.101562 C 15.417969 14.070312 15.433594 14.046875 15.460938 14.027344 C 15.617188 14.007812 15.761719 13.96875 15.898438 13.90625 Z M 15.898438 13.90625 "/>
</g>
<mask id="mask19">
  <g filter="url(#alpha)">
<rect x="0" y="0" width="40" height="30" style="fill:rgb(0%,0%,0%);fill-opacity:0.992157;stroke:none;"/>
  </g>
</mask>
<clipPath id="clip20">
  <rect x="0" y="0" width="40" height="30"/>
</clipPath>
<g id="surface62" clip-path="url(#clip20)">
<path style=" stroke:none;fill-rule:evenodd;fill:rgb(96.862745%,61.176471%,20.784314%);fill-opacity:1;" d="M 15.996094 13.859375 C 16.070312 13.859375 16.09375 13.890625 16.066406 13.957031 C 15.601562 14.492188 15.1875 15.066406 14.832031 15.679688 C 14.847656 15.730469 14.878906 15.753906 14.925781 15.753906 C 14.929688 15.871094 14.953125 15.984375 15 16.09375 C 15.492188 17.089844 15.96875 18.09375 16.433594 19.101562 C 16.480469 18.617188 16.496094 18.132812 16.480469 17.644531 C 16.609375 17.644531 16.738281 17.644531 16.867188 17.644531 C 16.875 17.675781 16.890625 17.699219 16.917969 17.71875 C 17.011719 17.742188 17.109375 17.75 17.207031 17.742188 C 17.214844 17.773438 17.230469 17.796875 17.257812 17.816406 C 17.351562 17.839844 17.449219 17.847656 17.546875 17.839844 C 17.554688 17.871094 17.570312 17.894531 17.597656 17.914062 C 17.691406 17.9375 17.789062 17.945312 17.886719 17.9375 C 17.960938 18.023438 18.058594 18.054688 18.179688 18.035156 C 18.195312 18.109375 18.242188 18.140625 18.324219 18.132812 C 18.574219 18.808594 18.785156 19.503906 18.957031 20.21875 C 18.96875 20.277344 19 20.308594 19.054688 20.316406 C 19.675781 20.371094 20.308594 20.378906 20.945312 20.339844 C 21 20.203125 21.0625 20.070312 21.140625 19.953125 C 21.113281 19.933594 21.097656 19.910156 21.09375 19.878906 C 21.164062 19.308594 21.308594 18.757812 21.527344 18.226562 C 21.59375 18.171875 21.65625 18.121094 21.722656 18.082031 C 21.773438 18.050781 21.820312 18.019531 21.867188 17.984375 C 21.984375 17.996094 22.082031 17.964844 22.160156 17.886719 C 22.175781 17.886719 22.191406 17.886719 22.207031 17.886719 C 22.300781 17.875 22.382812 17.839844 22.453125 17.792969 C 22.527344 17.804688 22.59375 17.789062 22.644531 17.742188 C 22.773438 17.746094 22.886719 17.714844 22.984375 17.644531 C 23.050781 17.644531 23.113281 17.644531 23.179688 17.644531 C 23.261719 17.644531 23.339844 17.644531 23.421875 17.644531 C 23.414062 18.148438 23.421875 18.648438 23.445312 19.152344 C 23.972656 18.054688 24.5 16.960938 25.023438 15.875 C 24.988281 15.839844 24.972656 15.800781 24.976562 15.753906 C 25.035156 15.660156 25.027344 15.5625 24.953125 15.460938 C 24.601562 14.992188 24.253906 14.519531 23.90625 14.054688 C 23.945312 14.03125 23.984375 14.015625 24.027344 14.003906 C 24.394531 14.171875 24.773438 14.285156 25.167969 14.34375 C 25.800781 14.554688 26.429688 14.78125 27.0625 15.023438 C 27.269531 15.097656 27.480469 15.144531 27.695312 15.167969 C 27.925781 15.90625 28.144531 16.648438 28.347656 17.402344 C 28.367188 17.386719 28.382812 17.371094 28.398438 17.355469 C 28.59375 18.121094 28.78125 18.878906 28.957031 19.636719 C 27.839844 19.539062 26.726562 19.457031 25.605469 19.394531 C 24.886719 19.34375 24.160156 19.316406 23.421875 19.320312 C 22.703125 19.785156 21.992188 20.261719 21.285156 20.753906 C 21.253906 20.734375 21.222656 20.71875 21.1875 20.703125 C 21.09375 20.640625 20.996094 20.574219 20.898438 20.507812 C 20.273438 20.453125 19.644531 20.445312 19.003906 20.484375 C 18.976562 20.503906 18.960938 20.527344 18.957031 20.558594 C 18.863281 20.585938 18.78125 20.636719 18.714844 20.703125 C 18.679688 20.703125 18.664062 20.71875 18.664062 20.753906 C 18.648438 20.753906 18.632812 20.753906 18.617188 20.753906 C 18.433594 20.589844 18.242188 20.433594 18.035156 20.292969 C 17.519531 19.988281 17.019531 19.664062 16.527344 19.320312 C 15.792969 19.296875 15.0625 19.320312 14.34375 19.394531 C 14.328125 19.394531 14.3125 19.394531 14.296875 19.394531 C 13.164062 19.460938 12.03125 19.542969 10.898438 19.636719 C 10.992188 19.335938 11.058594 19.027344 11.09375 18.714844 C 11.140625 18.714844 11.1875 18.714844 11.238281 18.714844 C 11.25 18.636719 11.234375 18.570312 11.1875 18.519531 C 11.425781 17.828125 11.628906 17.113281 11.796875 16.382812 C 11.8125 16.398438 11.828125 16.414062 11.84375 16.433594 C 11.957031 16.023438 12.078125 15.617188 12.207031 15.21875 C 12.621094 15.082031 13.023438 14.9375 13.421875 14.78125 C 13.53125 14.746094 13.644531 14.730469 13.761719 14.734375 C 13.976562 14.691406 14.1875 14.640625 14.394531 14.585938 C 14.394531 14.539062 14.394531 14.492188 14.394531 14.441406 C 14.574219 14.4375 14.734375 14.386719 14.878906 14.296875 C 15.066406 14.242188 15.242188 14.179688 15.414062 14.101562 C 15.601562 14.089844 15.761719 14.027344 15.898438 13.90625 C 15.929688 13.890625 15.960938 13.875 15.996094 13.859375 Z M 15.996094 13.859375 "/>
</g>
<mask id="mask20">
  <g filter="url(#alpha)">
<rect x="0" y="0" width="40" height="30" style="fill:rgb(0%,0%,0%);fill-opacity:0.415686;stroke:none;"/>
  </g>
</mask>
<clipPath id="clip21">
  <rect x="0" y="0" width="40" height="30"/>
</clipPath>
<g id="surface65" clip-path="url(#clip21)">
<path style=" stroke:none;fill-rule:evenodd;fill:rgb(77.647059%,18.823529%,9.411765%);fill-opacity:1;" d="M 11.722656 14.492188 C 11.839844 14.5 11.890625 14.5625 11.867188 14.683594 C 11.800781 14.632812 11.753906 14.570312 11.722656 14.492188 Z M 11.722656 14.492188 "/>
</g>
<mask id="mask21">
  <g filter="url(#alpha)">
<rect x="0" y="0" width="40" height="30" style="fill:rgb(0%,0%,0%);fill-opacity:0.984314;stroke:none;"/>
  </g>
</mask>
<clipPath id="clip22">
  <rect x="0" y="0" width="40" height="30"/>
</clipPath>
<g id="surface68" clip-path="url(#clip22)">
<path style=" stroke:none;fill-rule:evenodd;fill:rgb(86.27451%,54.509804%,20%);fill-opacity:1;" d="M 14.878906 14.296875 C 14.734375 14.386719 14.574219 14.4375 14.394531 14.441406 C 14.394531 14.492188 14.394531 14.539062 14.394531 14.585938 C 14.1875 14.640625 13.976562 14.691406 13.761719 14.734375 C 13.941406 14.65625 14.121094 14.578125 14.296875 14.492188 C 14.300781 14.460938 14.316406 14.4375 14.34375 14.417969 C 14.519531 14.363281 14.699219 14.320312 14.878906 14.296875 Z M 14.878906 14.296875 "/>
</g>
<mask id="mask22">
  <g filter="url(#alpha)">
<rect x="0" y="0" width="40" height="30" style="fill:rgb(0%,0%,0%);fill-opacity:0.960784;stroke:none;"/>
  </g>
</mask>
<clipPath id="clip23">
  <rect x="0" y="0" width="40" height="30"/>
</clipPath>
<g id="surface71" clip-path="url(#clip23)">
<path style=" stroke:none;fill-rule:evenodd;fill:rgb(68.627451%,43.529412%,19.215686%);fill-opacity:1;" d="M 14.296875 14.492188 C 14.121094 14.578125 13.941406 14.65625 13.761719 14.734375 C 13.644531 14.730469 13.53125 14.746094 13.421875 14.78125 C 13.425781 14.75 13.445312 14.726562 13.472656 14.707031 C 13.742188 14.621094 14.019531 14.546875 14.296875 14.492188 Z M 14.296875 14.492188 "/>
</g>
<mask id="mask23">
  <g filter="url(#alpha)">
<rect x="0" y="0" width="40" height="30" style="fill:rgb(0%,0%,0%);fill-opacity:0.439216;stroke:none;"/>
  </g>
</mask>
<clipPath id="clip24">
  <rect x="0" y="0" width="40" height="30"/>
</clipPath>
<g id="surface74" clip-path="url(#clip24)">
<path style=" stroke:none;fill-rule:evenodd;fill:rgb(76.470588%,17.254902%,8.627451%);fill-opacity:1;" d="M 12.113281 15.023438 C 12.1875 15.039062 12.21875 15.089844 12.207031 15.167969 C 12.164062 15.132812 12.132812 15.082031 12.113281 15.023438 Z M 12.113281 15.023438 "/>
</g>
<mask id="mask24">
  <g filter="url(#alpha)">
<rect x="0" y="0" width="40" height="30" style="fill:rgb(0%,0%,0%);fill-opacity:0.964706;stroke:none;"/>
  </g>
</mask>
<clipPath id="clip25">
  <rect x="0" y="0" width="40" height="30"/>
</clipPath>
<g id="surface77" clip-path="url(#clip25)">
<path style=" stroke:none;fill-rule:evenodd;fill:rgb(87.843137%,49.803922%,15.294118%);fill-opacity:1;" d="M 18.761719 15.753906 C 18.761719 15.769531 18.761719 15.785156 18.761719 15.800781 C 18.761719 15.816406 18.761719 15.832031 18.761719 15.847656 C 17.527344 15.789062 16.289062 15.742188 15.046875 15.703125 C 15.027344 15.757812 15.035156 15.804688 15.074219 15.847656 C 15.011719 15.835938 14.960938 15.804688 14.925781 15.753906 C 14.957031 15.691406 15.015625 15.660156 15.097656 15.65625 C 16.320312 15.691406 17.539062 15.726562 18.761719 15.753906 Z M 18.761719 15.753906 "/>
</g>
<mask id="mask25">
  <g filter="url(#alpha)">
<rect x="0" y="0" width="40" height="30" style="fill:rgb(0%,0%,0%);fill-opacity:0.996078;stroke:none;"/>
  </g>
</mask>
<clipPath id="clip26">
  <rect x="0" y="0" width="40" height="30"/>
</clipPath>
<g id="surface80" clip-path="url(#clip26)">
<path style=" stroke:none;fill-rule:evenodd;fill:rgb(91.764706%,55.686275%,22.352941%);fill-opacity:1;" d="M 21.09375 15.800781 C 21.109375 15.800781 21.125 15.800781 21.140625 15.800781 C 21.269531 16.492188 21.390625 17.1875 21.503906 17.886719 C 21.527344 18.015625 21.597656 18.078125 21.722656 18.082031 C 21.65625 18.121094 21.59375 18.171875 21.527344 18.226562 C 21.308594 18.757812 21.164062 19.308594 21.09375 19.878906 C 21.019531 19.9375 20.972656 20.015625 20.945312 20.121094 C 20.9375 18.679688 20.984375 17.238281 21.09375 15.800781 Z M 21.09375 15.800781 "/>
</g>
<mask id="mask26">
  <g filter="url(#alpha)">
<rect x="0" y="0" width="40" height="30" style="fill:rgb(0%,0%,0%);fill-opacity:0.984314;stroke:none;"/>
  </g>
</mask>
<clipPath id="clip27">
  <rect x="0" y="0" width="40" height="30"/>
</clipPath>
<g id="surface83" clip-path="url(#clip27)">
<path style=" stroke:none;fill-rule:evenodd;fill:rgb(91.764706%,55.686275%,22.352941%);fill-opacity:1;" d="M 18.761719 15.800781 C 18.800781 15.90625 18.824219 16.019531 18.835938 16.140625 C 18.910156 17.53125 18.980469 18.925781 19.054688 20.316406 C 19 20.308594 18.96875 20.277344 18.957031 20.21875 C 18.785156 19.503906 18.574219 18.808594 18.324219 18.132812 C 18.242188 18.140625 18.195312 18.109375 18.179688 18.035156 C 18.210938 18.035156 18.246094 18.035156 18.277344 18.035156 C 18.339844 17.96875 18.378906 17.886719 18.398438 17.792969 C 18.480469 17.132812 18.601562 16.484375 18.761719 15.847656 C 18.761719 15.832031 18.761719 15.816406 18.761719 15.800781 Z M 18.761719 15.800781 "/>
</g>
<mask id="mask27">
  <g filter="url(#alpha)">
<rect x="0" y="0" width="40" height="30" style="fill:rgb(0%,0%,0%);fill-opacity:0.972549;stroke:none;"/>
  </g>
</mask>
<clipPath id="clip28">
  <rect x="0" y="0" width="40" height="30"/>
</clipPath>
<g id="surface86" clip-path="url(#clip28)">
<path style=" stroke:none;fill-rule:evenodd;fill:rgb(35.294118%,27.843137%,21.568627%);fill-opacity:1;" d="M 16.867188 17.257812 C 16.789062 17.320312 16.707031 17.386719 16.625 17.453125 C 16.695312 17.5 16.757812 17.550781 16.820312 17.597656 C 16.71875 17.597656 16.625 17.582031 16.527344 17.546875 C 16.476562 17.496094 16.476562 17.449219 16.527344 17.402344 C 16.613281 17.289062 16.726562 17.238281 16.867188 17.257812 Z M 16.867188 17.257812 "/>
</g>
<mask id="mask28">
  <g filter="url(#alpha)">
<rect x="0" y="0" width="40" height="30" style="fill:rgb(0%,0%,0%);fill-opacity:0.909804;stroke:none;"/>
  </g>
</mask>
<clipPath id="clip29">
  <rect x="0" y="0" width="40" height="30"/>
</clipPath>
<g id="surface89" clip-path="url(#clip29)">
<path style=" stroke:none;fill-rule:evenodd;fill:rgb(63.529412%,42.745098%,20.784314%);fill-opacity:1;" d="M 23.324219 17.546875 C 23.277344 17.582031 23.226562 17.613281 23.179688 17.644531 C 23.113281 17.644531 23.050781 17.644531 22.984375 17.644531 C 23.082031 17.578125 23.195312 17.542969 23.324219 17.546875 Z M 23.324219 17.546875 "/>
</g>
<mask id="mask29">
  <g filter="url(#alpha)">
<rect x="0" y="0" width="40" height="30" style="fill:rgb(0%,0%,0%);fill-opacity:0.984314;stroke:none;"/>
  </g>
</mask>
<clipPath id="clip30">
  <rect x="0" y="0" width="40" height="30"/>
</clipPath>
<g id="surface92" clip-path="url(#clip30)">
<path style=" stroke:none;fill-rule:evenodd;fill:rgb(75.686275%,49.019608%,20.784314%);fill-opacity:1;" d="M 16.867188 17.644531 C 16.960938 17.675781 17.058594 17.691406 17.160156 17.695312 C 17.191406 17.695312 17.207031 17.710938 17.207031 17.742188 C 17.109375 17.75 17.011719 17.742188 16.917969 17.71875 C 16.890625 17.699219 16.875 17.675781 16.867188 17.644531 Z M 16.867188 17.644531 "/>
</g>
<mask id="mask30">
  <g filter="url(#alpha)">
<rect x="0" y="0" width="40" height="30" style="fill:rgb(0%,0%,0%);fill-opacity:0.917647;stroke:none;"/>
  </g>
</mask>
<clipPath id="clip31">
  <rect x="0" y="0" width="40" height="30"/>
</clipPath>
<g id="surface95" clip-path="url(#clip31)">
<path style=" stroke:none;fill-rule:evenodd;fill:rgb(61.568627%,41.568627%,20.784314%);fill-opacity:1;" d="M 22.984375 17.644531 C 22.886719 17.714844 22.773438 17.746094 22.644531 17.742188 C 22.742188 17.671875 22.855469 17.640625 22.984375 17.644531 Z M 22.984375 17.644531 "/>
</g>
<mask id="mask31">
  <g filter="url(#alpha)">
<rect x="0" y="0" width="40" height="30" style="fill:rgb(0%,0%,0%);fill-opacity:0.937255;stroke:none;"/>
  </g>
</mask>
<clipPath id="clip32">
  <rect x="0" y="0" width="40" height="30"/>
</clipPath>
<g id="surface98" clip-path="url(#clip32)">
<path style=" stroke:none;fill-rule:evenodd;fill:rgb(67.843137%,45.490196%,20.784314%);fill-opacity:1;" d="M 17.207031 17.742188 C 17.335938 17.738281 17.449219 17.769531 17.546875 17.839844 C 17.449219 17.847656 17.351562 17.839844 17.257812 17.816406 C 17.230469 17.796875 17.214844 17.773438 17.207031 17.742188 Z M 17.207031 17.742188 "/>
</g>
<mask id="mask32">
  <g filter="url(#alpha)">
<rect x="0" y="0" width="40" height="30" style="fill:rgb(0%,0%,0%);fill-opacity:0.929412;stroke:none;"/>
  </g>
</mask>
<clipPath id="clip33">
  <rect x="0" y="0" width="40" height="30"/>
</clipPath>
<g id="surface101" clip-path="url(#clip33)">
<path style=" stroke:none;fill-rule:evenodd;fill:rgb(52.941176%,37.254902%,20.784314%);fill-opacity:1;" d="M 22.453125 17.792969 C 22.382812 17.839844 22.300781 17.875 22.207031 17.886719 C 22.265625 17.804688 22.34375 17.773438 22.453125 17.792969 Z M 22.453125 17.792969 "/>
</g>
<mask id="mask33">
  <g filter="url(#alpha)">
<rect x="0" y="0" width="40" height="30" style="fill:rgb(0%,0%,0%);fill-opacity:0.984314;stroke:none;"/>
  </g>
</mask>
<clipPath id="clip34">
  <rect x="0" y="0" width="40" height="30"/>
</clipPath>
<g id="surface104" clip-path="url(#clip34)">
<path style=" stroke:none;fill-rule:evenodd;fill:rgb(72.156863%,47.45098%,20.784314%);fill-opacity:1;" d="M 17.546875 17.839844 C 17.671875 17.859375 17.785156 17.894531 17.886719 17.9375 C 17.789062 17.945312 17.691406 17.9375 17.597656 17.914062 C 17.570312 17.894531 17.554688 17.871094 17.546875 17.839844 Z M 17.546875 17.839844 "/>
</g>
<mask id="mask34">
  <g filter="url(#alpha)">
<rect x="0" y="0" width="40" height="30" style="fill:rgb(0%,0%,0%);fill-opacity:0.937255;stroke:none;"/>
  </g>
</mask>
<clipPath id="clip35">
  <rect x="0" y="0" width="40" height="30"/>
</clipPath>
<g id="surface107" clip-path="url(#clip35)">
<path style=" stroke:none;fill-rule:evenodd;fill:rgb(53.72549%,37.254902%,21.176471%);fill-opacity:1;" d="M 22.160156 17.886719 C 22.082031 17.964844 21.984375 17.996094 21.867188 17.984375 C 21.835938 17.984375 21.804688 17.984375 21.773438 17.984375 C 21.886719 17.925781 22.019531 17.890625 22.160156 17.886719 Z M 22.160156 17.886719 "/>
</g>
<mask id="mask35">
  <g filter="url(#alpha)">
<rect x="0" y="0" width="40" height="30" style="fill:rgb(0%,0%,0%);fill-opacity:0.905882;stroke:none;"/>
  </g>
</mask>
<clipPath id="clip36">
  <rect x="0" y="0" width="40" height="30"/>
</clipPath>
<g id="surface110" clip-path="url(#clip36)">
<path style=" stroke:none;fill-rule:evenodd;fill:rgb(65.882353%,43.137255%,20.784314%);fill-opacity:1;" d="M 18.226562 17.886719 C 18.273438 17.921875 18.289062 17.972656 18.277344 18.035156 C 18.246094 18.035156 18.210938 18.035156 18.179688 18.035156 C 18.058594 18.054688 17.960938 18.023438 17.886719 17.9375 C 17.960938 17.957031 18.03125 17.972656 18.105469 17.984375 C 18.171875 17.976562 18.214844 17.945312 18.226562 17.886719 Z M 18.226562 17.886719 "/>
</g>
<mask id="mask36">
  <g filter="url(#alpha)">
<rect x="0" y="0" width="40" height="30" style="fill:rgb(0%,0%,0%);fill-opacity:0.00392157;stroke:none;"/>
  </g>
</mask>
<clipPath id="clip37">
  <rect x="0" y="0" width="40" height="30"/>
</clipPath>
<g id="surface113" clip-path="url(#clip37)">
<path style=" stroke:none;fill-rule:evenodd;fill:rgb(98.823529%,87.058824%,7.45098%);fill-opacity:1;" d="M 11.1875 18.519531 C 11.234375 18.570312 11.25 18.636719 11.238281 18.714844 C 11.1875 18.714844 11.140625 18.714844 11.09375 18.714844 C 11.15625 18.667969 11.1875 18.601562 11.1875 18.519531 Z M 11.1875 18.519531 "/>
</g>
<mask id="mask37">
  <g filter="url(#alpha)">
<rect x="0" y="0" width="40" height="30" style="fill:rgb(0%,0%,0%);fill-opacity:0.972549;stroke:none;"/>
  </g>
</mask>
<clipPath id="clip38">
  <rect x="0" y="0" width="40" height="30"/>
</clipPath>
<g id="surface116" clip-path="url(#clip38)">
<path style=" stroke:none;fill-rule:evenodd;fill:rgb(91.764706%,55.686275%,20.784314%);fill-opacity:1;" d="M 18.617188 20.753906 C 18.363281 20.894531 18.136719 21.070312 17.9375 21.285156 C 17.828125 21.316406 17.746094 21.382812 17.695312 21.480469 C 17.1875 21.867188 16.683594 22.261719 16.1875 22.667969 C 16.109375 22.738281 16.078125 22.828125 16.09375 22.9375 C 15.875 22.980469 15.664062 23.042969 15.460938 23.132812 C 15.414062 23 15.363281 23 15.316406 23.132812 C 14.28125 23.550781 13.261719 23.941406 12.257812 24.296875 C 12.144531 24.339844 12.03125 24.347656 11.917969 24.320312 C 11.726562 23.488281 11.539062 22.605469 11.359375 21.675781 C 11.300781 21.554688 11.269531 21.425781 11.261719 21.285156 C 11.246094 21.300781 11.230469 21.320312 11.214844 21.335938 C 11.199219 21.1875 11.179688 21.042969 11.164062 20.898438 C 11.148438 20.914062 11.132812 20.929688 11.117188 20.945312 C 11.097656 20.75 11.074219 20.558594 11.042969 20.363281 C 11.074219 20.34375 11.089844 20.3125 11.09375 20.265625 C 11.082031 20.207031 11.046875 20.175781 10.996094 20.167969 C 10.9375 20.003906 10.90625 19.824219 10.898438 19.636719 C 12.03125 19.542969 13.164062 19.460938 14.296875 19.394531 C 14.855469 20.492188 15.445312 21.574219 16.066406 22.644531 C 16.070312 22.484375 16.117188 22.335938 16.214844 22.207031 C 16.273438 21.265625 16.34375 20.328125 16.433594 19.394531 C 15.734375 19.394531 15.039062 19.394531 14.34375 19.394531 C 15.0625 19.320312 15.792969 19.296875 16.527344 19.320312 C 17.019531 19.664062 17.519531 19.988281 18.035156 20.292969 C 18.242188 20.433594 18.433594 20.589844 18.617188 20.753906 Z M 18.617188 20.753906 "/>
</g>
<mask id="mask38">
  <g filter="url(#alpha)">
<rect x="0" y="0" width="40" height="30" style="fill:rgb(0%,0%,0%);fill-opacity:0.996078;stroke:none;"/>
  </g>
</mask>
<clipPath id="clip39">
  <rect x="0" y="0" width="40" height="30"/>
</clipPath>
<g id="surface119" clip-path="url(#clip39)">
<path style=" stroke:none;fill-rule:evenodd;fill:rgb(84.705882%,48.627451%,18.823529%);fill-opacity:1;" d="M 14.296875 19.394531 C 14.3125 19.394531 14.328125 19.394531 14.34375 19.394531 C 15.039062 19.394531 15.734375 19.394531 16.433594 19.394531 C 16.34375 20.328125 16.273438 21.265625 16.214844 22.207031 C 16.117188 22.335938 16.070312 22.484375 16.066406 22.644531 C 15.445312 21.574219 14.855469 20.492188 14.296875 19.394531 Z M 14.296875 19.394531 "/>
</g>
<mask id="mask39">
  <g filter="url(#alpha)">
<rect x="0" y="0" width="40" height="30" style="fill:rgb(0%,0%,0%);fill-opacity:0.972549;stroke:none;"/>
  </g>
</mask>
<clipPath id="clip40">
  <rect x="0" y="0" width="40" height="30"/>
</clipPath>
<g id="surface122" clip-path="url(#clip40)">
<path style=" stroke:none;fill-rule:evenodd;fill:rgb(92.156863%,56.078431%,20.784314%);fill-opacity:1;" d="M 25.605469 19.394531 C 26.726562 19.457031 27.839844 19.539062 28.957031 19.636719 C 28.863281 20.265625 28.757812 20.898438 28.640625 21.527344 C 28.625 21.511719 28.609375 21.496094 28.59375 21.480469 C 28.585938 21.621094 28.554688 21.75 28.496094 21.867188 C 28.324219 22.699219 28.15625 23.523438 27.984375 24.34375 C 27.859375 24.351562 27.738281 24.335938 27.621094 24.296875 C 26.363281 23.808594 25.089844 23.355469 23.8125 22.9375 C 23.820312 22.820312 23.773438 22.738281 23.664062 22.695312 C 22.921875 22.070312 22.164062 21.472656 21.382812 20.898438 C 21.382812 20.867188 21.367188 20.847656 21.335938 20.847656 C 21.320312 20.816406 21.300781 20.785156 21.285156 20.753906 C 21.992188 20.261719 22.703125 19.785156 23.421875 19.320312 C 24.160156 19.316406 24.886719 19.34375 25.605469 19.394531 Z M 25.605469 19.394531 "/>
</g>
<mask id="mask40">
  <g filter="url(#alpha)">
<rect x="0" y="0" width="40" height="30" style="fill:rgb(0%,0%,0%);fill-opacity:0.996078;stroke:none;"/>
  </g>
</mask>
<clipPath id="clip41">
  <rect x="0" y="0" width="40" height="30"/>
</clipPath>
<g id="surface125" clip-path="url(#clip41)">
<path style=" stroke:none;fill-rule:evenodd;fill:rgb(84.705882%,48.627451%,18.823529%);fill-opacity:1;" d="M 25.605469 19.394531 C 25.011719 20.445312 24.433594 21.515625 23.882812 22.597656 C 23.863281 22.621094 23.839844 22.636719 23.8125 22.644531 C 23.761719 22.390625 23.746094 22.128906 23.761719 21.867188 C 23.714844 21.867188 23.664062 21.867188 23.617188 21.867188 C 23.539062 21.042969 23.480469 20.21875 23.445312 19.394531 C 24.164062 19.382812 24.882812 19.382812 25.605469 19.394531 Z M 25.605469 19.394531 "/>
</g>
<mask id="mask41">
  <g filter="url(#alpha)">
<rect x="0" y="0" width="40" height="30" style="fill:rgb(0%,0%,0%);fill-opacity:0.372549;stroke:none;"/>
  </g>
</mask>
<clipPath id="clip42">
  <rect x="0" y="0" width="40" height="30"/>
</clipPath>
<g id="surface128" clip-path="url(#clip42)">
<path style=" stroke:none;fill-rule:evenodd;fill:rgb(96.078431%,79.215686%,9.803922%);fill-opacity:1;" d="M 10.996094 20.167969 C 11.046875 20.175781 11.082031 20.207031 11.09375 20.265625 C 11.089844 20.3125 11.074219 20.34375 11.042969 20.363281 C 11.046875 20.292969 11.03125 20.230469 10.996094 20.167969 Z M 10.996094 20.167969 "/>
</g>
<mask id="mask42">
  <g filter="url(#alpha)">
<rect x="0" y="0" width="40" height="30" style="fill:rgb(0%,0%,0%);fill-opacity:0.933333;stroke:none;"/>
  </g>
</mask>
<clipPath id="clip43">
  <rect x="0" y="0" width="40" height="30"/>
</clipPath>
<g id="surface131" clip-path="url(#clip43)">
<path style=" stroke:none;fill-rule:evenodd;fill:rgb(49.019608%,35.686275%,21.960784%);fill-opacity:1;" d="M 18.957031 20.558594 C 18.914062 20.667969 18.832031 20.714844 18.714844 20.703125 C 18.78125 20.636719 18.863281 20.585938 18.957031 20.558594 Z M 18.957031 20.558594 "/>
</g>
<mask id="mask43">
  <g filter="url(#alpha)">
<rect x="0" y="0" width="40" height="30" style="fill:rgb(0%,0%,0%);fill-opacity:0.819608;stroke:none;"/>
  </g>
</mask>
<clipPath id="clip44">
  <rect x="0" y="0" width="40" height="30"/>
</clipPath>
<g id="surface134" clip-path="url(#clip44)">
<path style=" stroke:none;fill-rule:evenodd;fill:rgb(89.019608%,71.372549%,55.686275%);fill-opacity:1;" d="M 17.9375 21.285156 C 17.886719 21.386719 17.804688 21.449219 17.695312 21.480469 C 17.746094 21.382812 17.828125 21.316406 17.9375 21.285156 Z M 17.9375 21.285156 "/>
</g>
<mask id="mask44">
  <g filter="url(#alpha)">
<rect x="0" y="0" width="40" height="30" style="fill:rgb(0%,0%,0%);fill-opacity:0.815686;stroke:none;"/>
  </g>
</mask>
<clipPath id="clip45">
  <rect x="0" y="0" width="40" height="30"/>
</clipPath>
<g id="surface137" clip-path="url(#clip45)">
<path style=" stroke:none;fill-rule:evenodd;fill:rgb(63.921569%,59.607843%,56.862745%);fill-opacity:1;" d="M 21.335938 20.847656 C 21.367188 20.847656 21.382812 20.867188 21.382812 20.898438 C 21.378906 21.175781 21.394531 21.449219 21.433594 21.722656 C 21.398438 21.703125 21.371094 21.671875 21.359375 21.625 C 21.335938 21.367188 21.328125 21.109375 21.335938 20.847656 Z M 21.335938 20.847656 "/>
</g>
<mask id="mask45">
  <g filter="url(#alpha)">
<rect x="0" y="0" width="40" height="30" style="fill:rgb(0%,0%,0%);fill-opacity:0.819608;stroke:none;"/>
  </g>
</mask>
<clipPath id="clip46">
  <rect x="0" y="0" width="40" height="30"/>
</clipPath>
<g id="surface140" clip-path="url(#clip46)">
<path style=" stroke:none;fill-rule:evenodd;fill:rgb(36.862745%,34.901961%,34.117647%);fill-opacity:1;" d="M 21.1875 20.703125 C 21.222656 20.71875 21.253906 20.734375 21.285156 20.753906 C 21.300781 20.785156 21.320312 20.816406 21.335938 20.847656 C 21.328125 21.109375 21.335938 21.367188 21.359375 21.625 C 21.371094 21.671875 21.398438 21.703125 21.433594 21.722656 C 21.421875 21.921875 21.4375 22.113281 21.480469 22.304688 C 21.492188 22.578125 21.425781 22.609375 21.285156 22.402344 C 20.40625 22.355469 19.515625 22.339844 18.617188 22.355469 C 19.0625 22.320312 19.515625 22.304688 19.976562 22.304688 C 20.449219 22.304688 20.910156 22.339844 21.359375 22.402344 C 21.390625 22.207031 21.390625 22.015625 21.359375 21.820312 C 21.316406 21.445312 21.257812 21.074219 21.1875 20.703125 Z M 21.1875 20.703125 "/>
</g>
<mask id="mask46">
  <g filter="url(#alpha)">
<rect x="0" y="0" width="40" height="30" style="fill:rgb(0%,0%,0%);fill-opacity:0.976471;stroke:none;"/>
  </g>
</mask>
<clipPath id="clip47">
  <rect x="0" y="0" width="40" height="30"/>
</clipPath>
<g id="surface143" clip-path="url(#clip47)">
<path style=" stroke:none;fill-rule:evenodd;fill:rgb(30.588235%,29.411765%,29.019608%);fill-opacity:1;" d="M 18.714844 20.703125 C 18.699219 21.167969 18.652344 21.628906 18.566406 22.085938 C 18.566406 22.1875 18.585938 22.273438 18.617188 22.355469 C 18.621094 22.398438 18.605469 22.429688 18.566406 22.453125 C 18.519531 22.242188 18.503906 22.035156 18.519531 21.820312 C 18.589844 21.464844 18.636719 21.109375 18.664062 20.753906 C 18.664062 20.71875 18.679688 20.703125 18.714844 20.703125 Z M 18.714844 20.703125 "/>
</g>
<mask id="mask47">
  <g filter="url(#alpha)">
<rect x="0" y="0" width="40" height="30" style="fill:rgb(0%,0%,0%);fill-opacity:0.937255;stroke:none;"/>
  </g>
</mask>
<clipPath id="clip48">
  <rect x="0" y="0" width="40" height="30"/>
</clipPath>
<g id="surface146" clip-path="url(#clip48)">
<path style=" stroke:none;fill-rule:evenodd;fill:rgb(80.392157%,74.117647%,69.803922%);fill-opacity:1;" d="M 21.480469 22.304688 C 21.492188 22.699219 21.492188 23.105469 21.480469 23.519531 C 22.050781 23.339844 22.632812 23.203125 23.226562 23.105469 C 23.378906 22.992188 23.539062 22.894531 23.714844 22.816406 C 23.675781 22.78125 23.660156 22.742188 23.664062 22.695312 C 23.773438 22.738281 23.820312 22.820312 23.8125 22.9375 C 23.59375 23.121094 23.367188 23.296875 23.132812 23.472656 C 22.574219 23.765625 22.042969 24.023438 21.527344 24.246094 C 20.492188 24.3125 19.457031 24.3125 18.421875 24.246094 C 17.859375 23.96875 17.328125 23.707031 16.820312 23.472656 C 16.609375 23.3125 16.382812 23.132812 16.140625 22.9375 C 16.132812 22.894531 16.152344 22.863281 16.1875 22.839844 C 16.375 22.933594 16.550781 23.039062 16.722656 23.15625 C 17.300781 23.273438 17.882812 23.378906 18.472656 23.472656 C 18.457031 23.175781 18.476562 22.886719 18.519531 22.597656 C 18.664062 22.613281 18.730469 22.546875 18.714844 22.402344 C 19.570312 22.402344 20.429688 22.402344 21.285156 22.402344 C 21.425781 22.609375 21.492188 22.578125 21.480469 22.304688 Z M 21.480469 22.304688 "/>
</g>
<mask id="mask48">
  <g filter="url(#alpha)">
<rect x="0" y="0" width="40" height="30" style="fill:rgb(0%,0%,0%);fill-opacity:0.129412;stroke:none;"/>
  </g>
</mask>
<clipPath id="clip49">
  <rect x="0" y="0" width="40" height="30"/>
</clipPath>
<g id="surface149" clip-path="url(#clip49)">
<path style=" stroke:none;fill-rule:evenodd;fill:rgb(95.686275%,76.078431%,11.372549%);fill-opacity:1;" d="M 15.460938 23.132812 C 15.414062 23.132812 15.363281 23.132812 15.316406 23.132812 C 15.363281 23 15.414062 23 15.460938 23.132812 Z M 15.460938 23.132812 "/>
</g>
</defs>
<g id="surface1">
<use xlink:href="#surface5" mask="url(#mask0)"/>
<use xlink:href="#surface8" mask="url(#mask1)"/>
<use xlink:href="#surface11" mask="url(#mask2)"/>
<use xlink:href="#surface14" mask="url(#mask3)"/>
<use xlink:href="#surface17" mask="url(#mask4)"/>
<use xlink:href="#surface20" mask="url(#mask5)"/>
<use xlink:href="#surface23" mask="url(#mask6)"/>
<use xlink:href="#surface26" mask="url(#mask7)"/>
<use xlink:href="#surface29" mask="url(#mask8)"/>
<use xlink:href="#surface32" mask="url(#mask9)"/>
<use xlink:href="#surface35" mask="url(#mask10)"/>
<use xlink:href="#surface38" mask="url(#mask11)"/>
<path style=" stroke:none;fill-rule:evenodd;fill:rgb(90.588235%,50.980392%,11.764706%);fill-opacity:1;" d="M 18.472656 11.335938 C 18.519531 11.332031 18.550781 11.359375 18.566406 11.40625 C 18.539062 11.527344 18.523438 11.648438 18.519531 11.773438 C 18.609375 13.097656 18.691406 14.425781 18.761719 15.753906 C 17.539062 15.726562 16.320312 15.691406 15.097656 15.65625 C 15.015625 15.660156 14.957031 15.691406 14.925781 15.753906 C 14.878906 15.753906 14.847656 15.730469 14.832031 15.679688 C 15.1875 15.066406 15.601562 14.492188 16.066406 13.957031 C 16.09375 13.890625 16.070312 13.859375 15.996094 13.859375 C 16.800781 13.0625 17.617188 12.269531 18.445312 11.480469 C 18.46875 11.433594 18.476562 11.386719 18.472656 11.335938 Z M 18.472656 11.335938 "/>
<path style=" stroke:none;fill-rule:evenodd;fill:rgb(90.588235%,50.980392%,11.764706%);fill-opacity:1;" d="M 21.433594 11.335938 C 21.425781 11.386719 21.433594 11.433594 21.457031 11.480469 C 22.222656 12.269531 23.007812 13.03125 23.8125 13.761719 C 23.769531 13.753906 23.734375 13.773438 23.714844 13.8125 C 23.789062 13.882812 23.855469 13.964844 23.90625 14.054688 C 24.253906 14.519531 24.601562 14.992188 24.953125 15.460938 C 25.027344 15.5625 25.035156 15.660156 24.976562 15.753906 C 24.933594 15.691406 24.871094 15.660156 24.78125 15.65625 C 23.566406 15.691406 22.355469 15.742188 21.140625 15.800781 C 21.125 15.800781 21.109375 15.800781 21.09375 15.800781 C 21.171875 14.34375 21.261719 12.886719 21.359375 11.433594 C 21.371094 11.386719 21.398438 11.355469 21.433594 11.335938 Z M 21.433594 11.335938 "/>
<use xlink:href="#surface41" mask="url(#mask12)"/>
<use xlink:href="#surface44" mask="url(#mask13)"/>
<use xlink:href="#surface47" mask="url(#mask14)"/>
<use xlink:href="#surface50" mask="url(#mask15)"/>
<use xlink:href="#surface53" mask="url(#mask16)"/>
<use xlink:href="#surface56" mask="url(#mask17)"/>
<use xlink:href="#surface59" mask="url(#mask18)"/>
<use xlink:href="#surface62" mask="url(#mask19)"/>
<use xlink:href="#surface65" mask="url(#mask20)"/>
<use xlink:href="#surface68" mask="url(#mask21)"/>
<use xlink:href="#surface71" mask="url(#mask22)"/>
<use xlink:href="#surface74" mask="url(#mask23)"/>
<use xlink:href="#surface77" mask="url(#mask24)"/>
<path style=" stroke:none;fill-rule:evenodd;fill:rgb(84.313725%,48.235294%,18.823529%);fill-opacity:1;" d="M 18.761719 15.847656 C 18.601562 16.484375 18.480469 17.132812 18.398438 17.792969 C 18.378906 17.886719 18.339844 17.96875 18.277344 18.035156 C 18.289062 17.972656 18.273438 17.921875 18.226562 17.886719 C 18.082031 17.621094 17.953125 17.34375 17.839844 17.0625 C 17.863281 16.929688 17.816406 16.832031 17.695312 16.773438 C 17.578125 16.8125 17.480469 16.878906 17.402344 16.964844 C 17.203125 17.027344 17.023438 17.125 16.867188 17.257812 C 16.726562 17.238281 16.613281 17.289062 16.527344 17.402344 C 16.476562 17.449219 16.476562 17.496094 16.527344 17.546875 C 16.050781 16.988281 15.566406 16.421875 15.074219 15.847656 C 15.035156 15.804688 15.027344 15.757812 15.046875 15.703125 C 16.289062 15.742188 17.527344 15.789062 18.761719 15.847656 Z M 18.761719 15.847656 "/>
<path style=" stroke:none;fill-rule:evenodd;fill:rgb(84.313725%,48.627451%,18.823529%);fill-opacity:1;" d="M 24.976562 15.753906 C 24.492188 16.230469 24.03125 16.734375 23.59375 17.257812 C 23.550781 17.335938 23.519531 17.414062 23.496094 17.5 C 23.460938 17.535156 23.421875 17.550781 23.375 17.546875 C 23.386719 17.515625 23.40625 17.484375 23.421875 17.453125 C 23.265625 17.382812 23.121094 17.300781 22.984375 17.207031 C 22.960938 17.140625 22.914062 17.109375 22.839844 17.113281 C 22.773438 17.078125 22.710938 17.046875 22.644531 17.015625 C 22.566406 16.894531 22.453125 16.832031 22.304688 16.820312 C 22.242188 16.820312 22.175781 16.820312 22.113281 16.820312 C 21.96875 17.15625 21.832031 17.496094 21.699219 17.839844 C 21.664062 17.902344 21.671875 17.949219 21.722656 17.984375 C 21.738281 17.984375 21.753906 17.984375 21.773438 17.984375 C 21.804688 17.984375 21.835938 17.984375 21.867188 17.984375 C 21.820312 18.019531 21.773438 18.050781 21.722656 18.082031 C 21.597656 18.078125 21.527344 18.015625 21.503906 17.886719 C 21.390625 17.1875 21.269531 16.492188 21.140625 15.800781 C 22.355469 15.742188 23.566406 15.691406 24.78125 15.65625 C 24.871094 15.660156 24.933594 15.691406 24.976562 15.753906 Z M 24.976562 15.753906 "/>
<path style=" stroke:none;fill-rule:evenodd;fill:rgb(91.764706%,55.294118%,22.352941%);fill-opacity:1;" d="M 14.925781 15.753906 C 14.960938 15.804688 15.011719 15.835938 15.074219 15.847656 C 15.566406 16.421875 16.050781 16.988281 16.527344 17.546875 C 16.625 17.582031 16.71875 17.597656 16.820312 17.597656 C 16.835938 17.597656 16.851562 17.597656 16.867188 17.597656 C 16.867188 17.613281 16.867188 17.628906 16.867188 17.644531 C 16.738281 17.644531 16.609375 17.644531 16.480469 17.644531 C 16.496094 18.132812 16.480469 18.617188 16.433594 19.101562 C 15.96875 18.09375 15.492188 17.089844 15 16.09375 C 14.953125 15.984375 14.929688 15.871094 14.925781 15.753906 Z M 14.925781 15.753906 "/>
<path style=" stroke:none;fill-rule:evenodd;fill:rgb(91.764706%,55.294118%,22.352941%);fill-opacity:1;" d="M 24.976562 15.753906 C 24.972656 15.800781 24.988281 15.839844 25.023438 15.875 C 24.5 16.960938 23.972656 18.054688 23.445312 19.152344 C 23.421875 18.648438 23.414062 18.148438 23.421875 17.644531 C 23.339844 17.644531 23.261719 17.644531 23.179688 17.644531 C 23.226562 17.613281 23.277344 17.582031 23.324219 17.546875 C 23.339844 17.546875 23.359375 17.546875 23.375 17.546875 C 23.421875 17.550781 23.460938 17.535156 23.496094 17.5 C 23.519531 17.414062 23.550781 17.335938 23.59375 17.257812 C 24.03125 16.734375 24.492188 16.230469 24.976562 15.753906 Z M 24.976562 15.753906 "/>
<use xlink:href="#surface80" mask="url(#mask25)"/>
<use xlink:href="#surface83" mask="url(#mask26)"/>
<path style=" stroke:none;fill-rule:evenodd;fill:rgb(42.745098%,30.588235%,21.176471%);fill-opacity:1;" d="M 17.839844 17.0625 C 17.8125 16.976562 17.757812 16.910156 17.667969 16.867188 C 17.582031 16.910156 17.492188 16.941406 17.402344 16.964844 C 17.480469 16.878906 17.578125 16.8125 17.695312 16.773438 C 17.816406 16.832031 17.863281 16.929688 17.839844 17.0625 Z M 17.839844 17.0625 "/>
<path style=" stroke:none;fill-rule:evenodd;fill:rgb(63.921569%,40%,20%);fill-opacity:1;" d="M 22.304688 16.867188 C 22.304688 16.851562 22.304688 16.835938 22.304688 16.820312 C 22.453125 16.832031 22.566406 16.894531 22.644531 17.015625 C 22.539062 16.957031 22.425781 16.910156 22.304688 16.867188 Z M 22.304688 16.867188 "/>
<path style=" stroke:none;fill-rule:evenodd;fill:rgb(23.137255%,22.352941%,21.960784%);fill-opacity:1;" d="M 17.839844 17.0625 C 17.953125 17.34375 18.082031 17.621094 18.226562 17.886719 C 18.214844 17.945312 18.171875 17.976562 18.105469 17.984375 C 18.03125 17.972656 17.960938 17.957031 17.886719 17.9375 C 17.785156 17.894531 17.671875 17.859375 17.546875 17.839844 C 17.449219 17.769531 17.335938 17.738281 17.207031 17.742188 C 17.207031 17.710938 17.191406 17.695312 17.160156 17.695312 C 17.082031 17.617188 16.984375 17.585938 16.867188 17.597656 C 16.851562 17.597656 16.835938 17.597656 16.820312 17.597656 C 16.757812 17.550781 16.695312 17.5 16.625 17.453125 C 16.707031 17.386719 16.789062 17.320312 16.867188 17.257812 C 17.023438 17.125 17.203125 17.027344 17.402344 16.964844 C 17.492188 16.941406 17.582031 16.910156 17.667969 16.867188 C 17.757812 16.910156 17.8125 16.976562 17.839844 17.0625 Z M 17.839844 17.0625 "/>
<path style=" stroke:none;fill-rule:evenodd;fill:rgb(34.901961%,27.45098%,21.960784%);fill-opacity:1;" d="M 22.304688 16.820312 C 22.304688 16.835938 22.304688 16.851562 22.304688 16.867188 C 22.257812 16.867188 22.207031 16.867188 22.160156 16.867188 C 22.03125 17.25 21.886719 17.621094 21.722656 17.984375 C 21.671875 17.949219 21.664062 17.902344 21.699219 17.839844 C 21.832031 17.496094 21.96875 17.15625 22.113281 16.820312 C 22.175781 16.820312 22.242188 16.820312 22.304688 16.820312 Z M 22.304688 16.820312 "/>
<path style=" stroke:none;fill-rule:evenodd;fill:rgb(22.745098%,22.352941%,21.960784%);fill-opacity:1;" d="M 22.304688 16.867188 C 22.425781 16.910156 22.539062 16.957031 22.644531 17.015625 C 22.710938 17.046875 22.773438 17.078125 22.839844 17.113281 C 22.863281 17.179688 22.910156 17.210938 22.984375 17.207031 C 23.121094 17.300781 23.265625 17.382812 23.421875 17.453125 C 23.40625 17.484375 23.386719 17.515625 23.375 17.546875 C 23.359375 17.546875 23.339844 17.546875 23.324219 17.546875 C 23.195312 17.542969 23.082031 17.578125 22.984375 17.644531 C 22.855469 17.640625 22.742188 17.671875 22.644531 17.742188 C 22.59375 17.789062 22.527344 17.804688 22.453125 17.792969 C 22.34375 17.773438 22.265625 17.804688 22.207031 17.886719 C 22.191406 17.886719 22.175781 17.886719 22.160156 17.886719 C 22.019531 17.890625 21.886719 17.925781 21.773438 17.984375 C 21.753906 17.984375 21.738281 17.984375 21.722656 17.984375 C 21.886719 17.621094 22.03125 17.25 22.160156 16.867188 C 22.207031 16.867188 22.257812 16.867188 22.304688 16.867188 Z M 22.304688 16.867188 "/>
<path style=" stroke:none;fill-rule:evenodd;fill:rgb(54.509804%,35.686275%,20.784314%);fill-opacity:1;" d="M 22.839844 17.113281 C 22.914062 17.109375 22.960938 17.140625 22.984375 17.207031 C 22.910156 17.210938 22.863281 17.179688 22.839844 17.113281 Z M 22.839844 17.113281 "/>
<use xlink:href="#surface86" mask="url(#mask27)"/>
<path style=" stroke:none;fill-rule:evenodd;fill:rgb(37.254902%,28.627451%,21.176471%);fill-opacity:1;" d="M 16.867188 17.644531 C 16.867188 17.628906 16.867188 17.613281 16.867188 17.597656 C 16.984375 17.585938 17.082031 17.617188 17.160156 17.695312 C 17.058594 17.691406 16.960938 17.675781 16.867188 17.644531 Z M 16.867188 17.644531 "/>
<use xlink:href="#surface89" mask="url(#mask28)"/>
<use xlink:href="#surface92" mask="url(#mask29)"/>
<use xlink:href="#surface95" mask="url(#mask30)"/>
<use xlink:href="#surface98" mask="url(#mask31)"/>
<use xlink:href="#surface101" mask="url(#mask32)"/>
<use xlink:href="#surface104" mask="url(#mask33)"/>
<use xlink:href="#surface107" mask="url(#mask34)"/>
<use xlink:href="#surface110" mask="url(#mask35)"/>
<use xlink:href="#surface113" mask="url(#mask36)"/>
<use xlink:href="#surface116" mask="url(#mask37)"/>
<use xlink:href="#surface119" mask="url(#mask38)"/>
<use xlink:href="#surface122" mask="url(#mask39)"/>
<use xlink:href="#surface125" mask="url(#mask40)"/>
<use xlink:href="#surface128" mask="url(#mask41)"/>
<path style=" stroke:none;fill-rule:evenodd;fill:rgb(63.529412%,43.921569%,21.568627%);fill-opacity:1;" d="M 20.898438 20.507812 C 20.25 20.496094 19.601562 20.511719 18.957031 20.558594 C 18.960938 20.527344 18.976562 20.503906 19.003906 20.484375 C 19.644531 20.445312 20.273438 20.453125 20.898438 20.507812 Z M 20.898438 20.507812 "/>
<use xlink:href="#surface131" mask="url(#mask42)"/>
<path style=" stroke:none;fill-rule:evenodd;fill:rgb(21.960784%,21.960784%,21.960784%);fill-opacity:1;" d="M 20.898438 20.507812 C 20.996094 20.574219 21.09375 20.640625 21.1875 20.703125 C 21.257812 21.074219 21.316406 21.445312 21.359375 21.820312 C 21.390625 22.015625 21.390625 22.207031 21.359375 22.402344 C 20.910156 22.339844 20.449219 22.304688 19.976562 22.304688 C 19.515625 22.304688 19.0625 22.320312 18.617188 22.355469 C 18.585938 22.273438 18.566406 22.1875 18.566406 22.085938 C 18.652344 21.628906 18.699219 21.167969 18.714844 20.703125 C 18.832031 20.714844 18.914062 20.667969 18.957031 20.558594 C 19.601562 20.511719 20.25 20.496094 20.898438 20.507812 Z M 20.898438 20.507812 "/>
<path style=" stroke:none;fill-rule:evenodd;fill:rgb(87.058824%,80%,75.294118%);fill-opacity:1;" d="M 18.617188 20.753906 C 18.632812 20.753906 18.648438 20.753906 18.664062 20.753906 C 18.636719 21.109375 18.589844 21.464844 18.519531 21.820312 C 18.480469 22.039062 18.449219 22.265625 18.421875 22.5 C 18.433594 22.558594 18.464844 22.589844 18.519531 22.597656 C 18.476562 22.886719 18.457031 23.175781 18.472656 23.472656 C 17.882812 23.378906 17.300781 23.273438 16.722656 23.15625 C 16.550781 23.039062 16.375 22.933594 16.1875 22.839844 C 16.152344 22.863281 16.132812 22.894531 16.140625 22.9375 C 16.125 22.9375 16.109375 22.9375 16.09375 22.9375 C 16.078125 22.828125 16.109375 22.738281 16.1875 22.667969 C 16.683594 22.261719 17.1875 21.867188 17.695312 21.480469 C 17.804688 21.449219 17.886719 21.386719 17.9375 21.285156 C 18.136719 21.070312 18.363281 20.894531 18.617188 20.753906 Z M 18.617188 20.753906 "/>
<path style=" stroke:none;fill-rule:evenodd;fill:rgb(87.058824%,80.392157%,76.078431%);fill-opacity:1;" d="M 21.382812 20.898438 C 22.164062 21.472656 22.921875 22.070312 23.664062 22.695312 C 23.660156 22.742188 23.675781 22.78125 23.714844 22.816406 C 23.539062 22.894531 23.378906 22.992188 23.226562 23.105469 C 22.632812 23.203125 22.050781 23.339844 21.480469 23.519531 C 21.492188 23.105469 21.492188 22.699219 21.480469 22.304688 C 21.4375 22.113281 21.421875 21.921875 21.433594 21.722656 C 21.394531 21.449219 21.378906 21.175781 21.382812 20.898438 Z M 21.382812 20.898438 "/>
<use xlink:href="#surface134" mask="url(#mask43)"/>
<use xlink:href="#surface137" mask="url(#mask44)"/>
<use xlink:href="#surface140" mask="url(#mask45)"/>
<use xlink:href="#surface143" mask="url(#mask46)"/>
<path style=" stroke:none;fill-rule:evenodd;fill:rgb(69.019608%,64.313725%,60.784314%);fill-opacity:1;" d="M 18.519531 21.820312 C 18.503906 22.035156 18.519531 22.242188 18.566406 22.453125 C 18.605469 22.429688 18.621094 22.398438 18.617188 22.355469 C 19.515625 22.339844 20.40625 22.355469 21.285156 22.402344 C 20.429688 22.402344 19.570312 22.402344 18.714844 22.402344 C 18.730469 22.546875 18.664062 22.613281 18.519531 22.597656 C 18.464844 22.589844 18.433594 22.558594 18.421875 22.5 C 18.449219 22.265625 18.480469 22.039062 18.519531 21.820312 Z M 18.519531 21.820312 "/>
<use xlink:href="#surface146" mask="url(#mask47)"/>
<use xlink:href="#surface149" mask="url(#mask48)"/>
</g>
</svg>
