<?xml version="1.0" encoding="UTF-8"?>
<svg xmlns="http://www.w3.org/2000/svg" xmlns:xlink="http://www.w3.org/1999/xlink" width="40px" height="30px" viewBox="0 0 40 30" version="1.1">
<defs>
<filter id="alpha" filterUnits="objectBoundingBox" x="0%" y="0%" width="100%" height="100%">
  <feColorMatrix type="matrix" in="SourceGraphic" values="0 0 0 0 1 0 0 0 0 1 0 0 0 0 1 0 0 0 1 0"/>
</filter>
<mask id="mask0">
  <g filter="url(#alpha)">
<rect x="0" y="0" width="40" height="30" style="fill:rgb(0%,0%,0%);fill-opacity:0.996078;stroke:none;"/>
  </g>
</mask>
<clipPath id="clip1">
  <rect x="0" y="0" width="40" height="30"/>
</clipPath>
<g id="surface5" clip-path="url(#clip1)">
<path style=" stroke:none;fill-rule:evenodd;fill:rgb(20%,45.882353%,73.333333%);fill-opacity:1;" d="M 11.042969 6.285156 C 11.140625 6.285156 11.1875 6.238281 11.1875 6.140625 C 13.625 3.769531 16.550781 2.570312 19.976562 2.546875 C 25.207031 2.710938 28.984375 5.121094 31.3125 9.78125 C 32.445312 12.328125 32.71875 14.964844 32.136719 17.695312 C 30.898438 22.507812 27.898438 25.621094 23.132812 27.039062 C 18.683594 28.054688 14.769531 27.050781 11.382812 24.027344 C 7.929688 20.488281 6.804688 16.304688 8.007812 11.480469 C 8.601562 9.488281 9.613281 7.757812 11.042969 6.285156 Z M 11.042969 6.285156 "/>
</g>
<mask id="mask1">
  <g filter="url(#alpha)">
<rect x="0" y="0" width="40" height="30" style="fill:rgb(0%,0%,0%);fill-opacity:0.494118;stroke:none;"/>
  </g>
</mask>
<clipPath id="clip2">
  <rect x="0" y="0" width="40" height="30"/>
</clipPath>
<g id="surface8" clip-path="url(#clip2)">
<path style=" stroke:none;fill-rule:evenodd;fill:rgb(16.078431%,29.019608%,81.176471%);fill-opacity:1;" d="M 11.1875 6.140625 C 11.1875 6.238281 11.140625 6.285156 11.042969 6.285156 C 11.074219 6.222656 11.125 6.171875 11.1875 6.140625 Z M 11.1875 6.140625 "/>
</g>
</defs>
<g id="surface1">
<use xlink:href="#surface5" mask="url(#mask0)"/>
<use xlink:href="#surface8" mask="url(#mask1)"/>
<path style=" stroke:none;fill-rule:evenodd;fill:rgb(99.215686%,99.215686%,99.607843%);fill-opacity:1;" d="M 19.734375 7.015625 C 19.917969 7.003906 20.09375 7.027344 20.265625 7.085938 C 22.054688 8.394531 24.058594 8.976562 26.285156 8.835938 C 26.550781 8.921875 26.734375 9.089844 26.84375 9.34375 C 26.871094 11.585938 26.742188 13.820312 26.457031 16.042969 C 26.292969 17.378906 25.824219 18.59375 25.046875 19.683594 C 24.730469 20.035156 24.382812 20.351562 24.003906 20.632812 C 22.847656 21.316406 21.699219 22.011719 20.558594 22.71875 C 20.234375 22.957031 19.894531 22.988281 19.539062 22.816406 C 18.355469 22.066406 17.15625 21.339844 15.945312 20.632812 C 14.847656 19.832031 14.128906 18.773438 13.785156 17.453125 C 13.472656 16.078125 13.277344 14.6875 13.203125 13.277344 C 13.125 11.96875 13.089844 10.65625 13.105469 9.34375 C 13.214844 9.089844 13.402344 8.921875 13.664062 8.835938 C 15.558594 8.925781 17.320312 8.507812 18.957031 7.574219 C 19.210938 7.375 19.46875 7.1875 19.734375 7.015625 Z M 19.734375 7.015625 "/>
<path style=" stroke:none;fill-rule:evenodd;fill:rgb(20%,45.882353%,73.333333%);fill-opacity:1;" d="M 19.878906 8.859375 C 19.945312 8.851562 20.011719 8.859375 20.074219 8.882812 C 21.640625 9.882812 23.355469 10.394531 25.21875 10.414062 C 25.21875 12.132812 25.113281 13.847656 24.902344 15.558594 C 24.796875 16.363281 24.585938 17.140625 24.273438 17.886719 C 24.015625 18.421875 23.652344 18.867188 23.179688 19.222656 C 22.121094 19.875 21.050781 20.515625 19.976562 21.140625 C 18.90625 20.542969 17.855469 19.917969 16.820312 19.273438 C 16.058594 18.703125 15.5625 17.949219 15.339844 17.015625 C 15.039062 15.738281 14.859375 14.445312 14.804688 13.132812 C 14.765625 12.226562 14.742188 11.320312 14.734375 10.414062 C 16.175781 10.390625 17.554688 10.074219 18.859375 9.464844 C 19.21875 9.285156 19.558594 9.085938 19.878906 8.859375 Z M 19.878906 8.859375 "/>
</g>
</svg>
