<?xml version="1.0" encoding="UTF-8"?>
<svg xmlns="http://www.w3.org/2000/svg" xmlns:xlink="http://www.w3.org/1999/xlink" width="40px" height="30px" viewBox="0 0 40 30" version="1.1">
<defs>
<filter id="alpha" filterUnits="objectBoundingBox" x="0%" y="0%" width="100%" height="100%">
  <feColorMatrix type="matrix" in="SourceGraphic" values="0 0 0 0 1 0 0 0 0 1 0 0 0 0 1 0 0 0 1 0"/>
</filter>
<mask id="mask0">
  <g filter="url(#alpha)">
<rect x="0" y="0" width="40" height="30" style="fill:rgb(0%,0%,0%);fill-opacity:0.996078;stroke:none;"/>
  </g>
</mask>
<clipPath id="clip1">
  <rect x="0" y="0" width="40" height="30"/>
</clipPath>
<g id="surface5" clip-path="url(#clip1)">
<path style=" stroke:none;fill-rule:evenodd;fill:rgb(11.764706%,49.019608%,98.823529%);fill-opacity:1;" d="M 19.976562 2.546875 C 23.355469 6.0625 25.085938 10.269531 25.167969 15.167969 C 24.78125 15.589844 24.378906 15.996094 23.957031 16.382812 C 24.011719 15.523438 24.011719 14.648438 23.957031 13.761719 C 24.246094 13.449219 24.546875 13.140625 24.855469 12.839844 C 24.886719 12.726562 24.886719 12.613281 24.855469 12.5 C 24.472656 12.0625 24.046875 11.691406 23.566406 11.382812 C 22.773438 7.914062 21.058594 5.003906 18.421875 2.644531 C 18.929688 2.5625 19.449219 2.527344 19.976562 2.546875 Z M 19.976562 2.546875 "/>
</g>
<mask id="mask1">
  <g filter="url(#alpha)">
<rect x="0" y="0" width="40" height="30" style="fill:rgb(0%,0%,0%);fill-opacity:0.996078;stroke:none;"/>
  </g>
</mask>
<clipPath id="clip2">
  <rect x="0" y="0" width="40" height="30"/>
</clipPath>
<g id="surface8" clip-path="url(#clip2)">
<path style=" stroke:none;fill-rule:evenodd;fill:rgb(8.627451%,47.45098%,99.215686%);fill-opacity:1;" d="M 21.09375 2.597656 C 21.90625 2.636719 22.699219 2.78125 23.472656 3.035156 C 26.105469 6.566406 27.429688 10.546875 27.453125 14.976562 C 27.140625 14.738281 26.847656 14.46875 26.578125 14.175781 C 26.464844 14.140625 26.351562 14.140625 26.238281 14.175781 C 26.128906 14.308594 26 14.414062 25.847656 14.492188 C 25.742188 11.085938 24.777344 7.945312 22.960938 5.074219 C 22.355469 4.207031 21.730469 3.382812 21.09375 2.597656 Z M 21.09375 2.597656 "/>
</g>
<mask id="mask2">
  <g filter="url(#alpha)">
<rect x="0" y="0" width="40" height="30" style="fill:rgb(0%,0%,0%);fill-opacity:0.996078;stroke:none;"/>
  </g>
</mask>
<clipPath id="clip3">
  <rect x="0" y="0" width="40" height="30"/>
</clipPath>
<g id="surface11" clip-path="url(#clip3)">
<path style=" stroke:none;fill-rule:evenodd;fill:rgb(13.333333%,50.196078%,98.431373%);fill-opacity:1;" d="M 18.421875 2.644531 C 21.058594 5.003906 22.773438 7.914062 23.566406 11.382812 C 22.996094 11.015625 22.382812 10.738281 21.722656 10.558594 C 20.710938 7.507812 18.945312 5 16.433594 3.035156 C 17.082031 2.828125 17.742188 2.699219 18.421875 2.644531 Z M 18.421875 2.644531 "/>
</g>
<mask id="mask3">
  <g filter="url(#alpha)">
<rect x="0" y="0" width="40" height="30" style="fill:rgb(0%,0%,0%);fill-opacity:0.996078;stroke:none;"/>
  </g>
</mask>
<clipPath id="clip4">
  <rect x="0" y="0" width="40" height="30"/>
</clipPath>
<g id="surface14" clip-path="url(#clip4)">
<path style=" stroke:none;fill-rule:evenodd;fill:rgb(15.686275%,50.980392%,98.431373%);fill-opacity:1;" d="M 16.433594 3.035156 C 18.945312 5 20.710938 7.507812 21.722656 10.558594 C 21.136719 10.398438 20.539062 10.316406 19.925781 10.316406 C 18.855469 7.546875 17.078125 5.363281 14.585938 3.761719 C 15.175781 3.464844 15.789062 3.21875 16.433594 3.035156 Z M 16.433594 3.035156 "/>
</g>
<mask id="mask4">
  <g filter="url(#alpha)">
<rect x="0" y="0" width="40" height="30" style="fill:rgb(0%,0%,0%);fill-opacity:0.996078;stroke:none;"/>
  </g>
</mask>
<clipPath id="clip5">
  <rect x="0" y="0" width="40" height="30"/>
</clipPath>
<g id="surface17" clip-path="url(#clip5)">
<path style=" stroke:none;fill-rule:evenodd;fill:rgb(6.27451%,46.666667%,99.215686%);fill-opacity:1;" d="M 23.472656 3.035156 C 24.019531 3.164062 24.535156 3.355469 25.023438 3.617188 C 28.617188 9.488281 29.289062 15.703125 27.039062 22.257812 C 26.476562 23.703125 25.789062 25.078125 24.976562 26.382812 C 24.480469 26.621094 23.960938 26.796875 23.421875 26.917969 C 23.597656 26.761719 23.75 26.585938 23.882812 26.382812 C 26.09375 23.175781 27.285156 19.613281 27.453125 15.703125 C 27.710938 15.460938 27.710938 15.21875 27.453125 14.976562 C 27.429688 10.546875 26.105469 6.566406 23.472656 3.035156 Z M 23.472656 3.035156 "/>
</g>
<mask id="mask5">
  <g filter="url(#alpha)">
<rect x="0" y="0" width="40" height="30" style="fill:rgb(0%,0%,0%);fill-opacity:0.996078;stroke:none;"/>
  </g>
</mask>
<clipPath id="clip6">
  <rect x="0" y="0" width="40" height="30"/>
</clipPath>
<g id="surface20" clip-path="url(#clip6)">
<path style=" stroke:none;fill-rule:evenodd;fill:rgb(5.098039%,45.882353%,99.607843%);fill-opacity:1;" d="M 25.023438 3.617188 C 25.441406 3.761719 25.828125 3.953125 26.1875 4.199219 C 29.5 10.253906 29.945312 16.515625 27.523438 22.984375 C 27.152344 23.894531 26.726562 24.777344 26.238281 25.632812 C 26.265625 25.652344 26.300781 25.660156 26.335938 25.65625 C 25.914062 25.949219 25.460938 26.191406 24.976562 26.382812 C 25.789062 25.078125 26.476562 23.703125 27.039062 22.257812 C 29.289062 15.703125 28.617188 9.488281 25.023438 3.617188 Z M 25.023438 3.617188 "/>
</g>
<mask id="mask6">
  <g filter="url(#alpha)">
<rect x="0" y="0" width="40" height="30" style="fill:rgb(0%,0%,0%);fill-opacity:0.996078;stroke:none;"/>
  </g>
</mask>
<clipPath id="clip7">
  <rect x="0" y="0" width="40" height="30"/>
</clipPath>
<g id="surface23" clip-path="url(#clip7)">
<path style=" stroke:none;fill-rule:evenodd;fill:rgb(18.039216%,52.156863%,98.039216%);fill-opacity:1;" d="M 14.585938 3.761719 C 17.078125 5.363281 18.855469 7.546875 19.925781 10.316406 C 19.382812 10.308594 18.851562 10.371094 18.324219 10.507812 C 17.207031 7.964844 15.425781 6.023438 12.984375 4.683594 C 13.480469 4.316406 14.011719 4.007812 14.585938 3.761719 Z M 14.585938 3.761719 "/>
</g>
<mask id="mask7">
  <g filter="url(#alpha)">
<rect x="0" y="0" width="40" height="30" style="fill:rgb(0%,0%,0%);fill-opacity:0.996078;stroke:none;"/>
  </g>
</mask>
<clipPath id="clip8">
  <rect x="0" y="0" width="40" height="30"/>
</clipPath>
<g id="surface26" clip-path="url(#clip8)">
<path style=" stroke:none;fill-rule:evenodd;fill:rgb(3.529412%,45.098039%,99.607843%);fill-opacity:1;" d="M 26.1875 4.199219 C 27.269531 4.792969 28.226562 5.554688 29.054688 6.480469 C 31.171875 12.136719 31.1875 17.785156 29.101562 23.421875 C 28.296875 24.316406 27.375 25.0625 26.335938 25.65625 C 26.300781 25.660156 26.265625 25.652344 26.238281 25.632812 C 26.726562 24.777344 27.152344 23.894531 27.523438 22.984375 C 29.945312 16.515625 29.5 10.253906 26.1875 4.199219 Z M 26.1875 4.199219 "/>
</g>
<mask id="mask8">
  <g filter="url(#alpha)">
<rect x="0" y="0" width="40" height="30" style="fill:rgb(0%,0%,0%);fill-opacity:0.992157;stroke:none;"/>
  </g>
</mask>
<clipPath id="clip9">
  <rect x="0" y="0" width="40" height="30"/>
</clipPath>
<g id="surface29" clip-path="url(#clip9)">
<path style=" stroke:none;fill-rule:evenodd;fill:rgb(1.568627%,43.921569%,99.607843%);fill-opacity:1;" d="M 29.054688 6.480469 C 31.28125 8.859375 32.398438 11.691406 32.402344 14.976562 C 32.394531 18.234375 31.296875 21.050781 29.101562 23.421875 C 31.1875 17.785156 31.171875 12.136719 29.054688 6.480469 Z M 29.054688 6.480469 "/>
</g>
<mask id="mask9">
  <g filter="url(#alpha)">
<rect x="0" y="0" width="40" height="30" style="fill:rgb(0%,0%,0%);fill-opacity:0.996078;stroke:none;"/>
  </g>
</mask>
<clipPath id="clip10">
  <rect x="0" y="0" width="40" height="30"/>
</clipPath>
<g id="surface32" clip-path="url(#clip10)">
<path style=" stroke:none;fill-rule:evenodd;fill:rgb(27.843137%,57.254902%,97.254902%);fill-opacity:1;" d="M 9.296875 8.617188 C 9.859375 8.824219 10.410156 9.078125 10.945312 9.367188 C 12.8125 10.566406 13.851562 12.273438 14.054688 14.492188 C 13.933594 14.394531 13.820312 14.289062 13.714844 14.175781 C 13.601562 14.140625 13.488281 14.140625 13.375 14.175781 C 13.121094 14.453125 12.84375 14.703125 12.546875 14.925781 C 12.328125 12.433594 11.019531 10.839844 8.617188 10.144531 C 8.578125 10.113281 8.5625 10.074219 8.566406 10.023438 C 8.75 9.519531 8.992188 9.046875 9.296875 8.617188 Z M 9.296875 8.617188 "/>
</g>
<mask id="mask10">
  <g filter="url(#alpha)">
<rect x="0" y="0" width="40" height="30" style="fill:rgb(0%,0%,0%);fill-opacity:0.996078;stroke:none;"/>
  </g>
</mask>
<clipPath id="clip11">
  <rect x="0" y="0" width="40" height="30"/>
</clipPath>
<g id="surface35" clip-path="url(#clip11)">
<path style=" stroke:none;fill-rule:evenodd;fill:rgb(29.803922%,58.039216%,96.862745%);fill-opacity:1;" d="M 8.566406 10.023438 C 8.5625 10.074219 8.578125 10.113281 8.617188 10.144531 C 11.019531 10.839844 12.328125 12.433594 12.546875 14.925781 C 12.277344 15.140625 12.242188 15.386719 12.453125 15.65625 C 12.019531 17.878906 10.710938 19.269531 8.519531 19.832031 C 8.382812 19.554688 8.269531 19.261719 8.179688 18.957031 C 10.050781 18.597656 11.175781 17.480469 11.554688 15.605469 C 11.75 13.761719 11.0625 12.359375 9.492188 11.40625 C 9.074219 11.195312 8.640625 11.058594 8.179688 10.996094 C 8.28125 10.65625 8.410156 10.332031 8.566406 10.023438 Z M 8.566406 10.023438 "/>
</g>
<mask id="mask11">
  <g filter="url(#alpha)">
<rect x="0" y="0" width="40" height="30" style="fill:rgb(0%,0%,0%);fill-opacity:0.996078;stroke:none;"/>
  </g>
</mask>
<clipPath id="clip12">
  <rect x="0" y="0" width="40" height="30"/>
</clipPath>
<g id="surface38" clip-path="url(#clip12)">
<path style=" stroke:none;fill-rule:evenodd;fill:rgb(30.980392%,58.823529%,96.862745%);fill-opacity:1;" d="M 8.179688 10.996094 C 8.640625 11.058594 9.074219 11.195312 9.492188 11.40625 C 11.0625 12.359375 11.75 13.761719 11.554688 15.605469 C 11.175781 17.480469 10.050781 18.597656 8.179688 18.957031 C 8.058594 18.625 7.964844 18.285156 7.886719 17.9375 C 7.921875 17.964844 7.953125 17.996094 7.984375 18.035156 C 9.828125 17.574219 10.695312 16.390625 10.582031 14.492188 C 10.253906 13.054688 9.371094 12.179688 7.9375 11.867188 C 7.988281 11.570312 8.070312 11.277344 8.179688 10.996094 Z M 8.179688 10.996094 "/>
</g>
<mask id="mask12">
  <g filter="url(#alpha)">
<rect x="0" y="0" width="40" height="30" style="fill:rgb(0%,0%,0%);fill-opacity:0.996078;stroke:none;"/>
  </g>
</mask>
<clipPath id="clip13">
  <rect x="0" y="0" width="40" height="30"/>
</clipPath>
<g id="surface41" clip-path="url(#clip13)">
<path style=" stroke:none;fill-rule:evenodd;fill:rgb(33.333333%,60%,96.470588%);fill-opacity:1;" d="M 7.9375 11.867188 C 9.371094 12.179688 10.253906 13.054688 10.582031 14.492188 C 10.695312 16.390625 9.828125 17.574219 7.984375 18.035156 C 7.953125 17.996094 7.921875 17.964844 7.886719 17.9375 C 7.636719 16.96875 7.523438 15.980469 7.546875 14.976562 C 7.511719 13.914062 7.640625 12.878906 7.9375 11.867188 Z M 7.9375 11.867188 "/>
</g>
<mask id="mask13">
  <g filter="url(#alpha)">
<rect x="0" y="0" width="40" height="30" style="fill:rgb(0%,0%,0%);fill-opacity:0.996078;stroke:none;"/>
  </g>
</mask>
<clipPath id="clip14">
  <rect x="0" y="0" width="40" height="30"/>
</clipPath>
<g id="surface44" clip-path="url(#clip14)">
<path style=" stroke:none;fill-rule:evenodd;fill:rgb(27.843137%,57.254902%,97.254902%);fill-opacity:1;" d="M 12.453125 15.65625 C 12.933594 16.058594 13.386719 16.496094 13.8125 16.964844 C 13.015625 19.167969 11.492188 20.609375 9.246094 21.285156 C 8.953125 20.828125 8.710938 20.34375 8.519531 19.832031 C 10.710938 19.269531 12.019531 17.878906 12.453125 15.65625 Z M 12.453125 15.65625 "/>
</g>
<mask id="mask14">
  <g filter="url(#alpha)">
<rect x="0" y="0" width="40" height="30" style="fill:rgb(0%,0%,0%);fill-opacity:0.996078;stroke:none;"/>
  </g>
</mask>
<clipPath id="clip15">
  <rect x="0" y="0" width="40" height="30"/>
</clipPath>
<g id="surface47" clip-path="url(#clip15)">
<path style=" stroke:none;fill-rule:evenodd;fill:rgb(8.627451%,47.45098%,99.215686%);fill-opacity:1;" d="M 27.453125 15.703125 C 27.285156 19.613281 26.09375 23.175781 23.882812 26.382812 C 23.75 26.585938 23.597656 26.761719 23.421875 26.917969 C 22.671875 27.175781 21.894531 27.320312 21.09375 27.355469 C 23.597656 24.527344 25.132812 21.207031 25.703125 17.402344 C 26.253906 16.800781 26.839844 16.234375 27.453125 15.703125 Z M 27.453125 15.703125 "/>
</g>
<mask id="mask15">
  <g filter="url(#alpha)">
<rect x="0" y="0" width="40" height="30" style="fill:rgb(0%,0%,0%);fill-opacity:0.996078;stroke:none;"/>
  </g>
</mask>
<clipPath id="clip16">
  <rect x="0" y="0" width="40" height="30"/>
</clipPath>
<g id="surface50" clip-path="url(#clip16)">
<path style=" stroke:none;fill-rule:evenodd;fill:rgb(15.686275%,50.980392%,98.431373%);fill-opacity:1;" d="M 20.605469 17.304688 C 21.0625 17.742188 21.515625 18.179688 21.964844 18.617188 C 21.273438 21.144531 20.035156 23.363281 18.253906 25.265625 C 17.664062 25.847656 17.054688 26.398438 16.433594 26.917969 C 15.789062 26.730469 15.175781 26.488281 14.585938 26.1875 C 17.816406 24.070312 19.824219 21.109375 20.605469 17.304688 Z M 20.605469 17.304688 "/>
</g>
<mask id="mask16">
  <g filter="url(#alpha)">
<rect x="0" y="0" width="40" height="30" style="fill:rgb(0%,0%,0%);fill-opacity:0.996078;stroke:none;"/>
  </g>
</mask>
<clipPath id="clip17">
  <rect x="0" y="0" width="40" height="30"/>
</clipPath>
<g id="surface53" clip-path="url(#clip17)">
<path style=" stroke:none;fill-rule:evenodd;fill:rgb(20.784314%,53.72549%,98.039216%);fill-opacity:1;" d="M 18.8125 17.839844 C 17.917969 21.144531 15.976562 23.621094 12.984375 25.265625 C 12.355469 24.878906 11.789062 24.410156 11.285156 23.859375 C 12.875 23.21875 14.195312 22.214844 15.242188 20.847656 C 15.585938 20.335938 15.917969 19.820312 16.238281 19.296875 C 16.375 19.40625 16.503906 19.527344 16.625 19.660156 C 16.746094 19.695312 16.859375 19.679688 16.964844 19.613281 C 17.589844 19.027344 18.203125 18.4375 18.8125 17.839844 Z M 18.8125 17.839844 "/>
</g>
<mask id="mask17">
  <g filter="url(#alpha)">
<rect x="0" y="0" width="40" height="30" style="fill:rgb(0%,0%,0%);fill-opacity:0.996078;stroke:none;"/>
  </g>
</mask>
<clipPath id="clip18">
  <rect x="0" y="0" width="40" height="30"/>
</clipPath>
<g id="surface56" clip-path="url(#clip18)">
<path style=" stroke:none;fill-rule:evenodd;fill:rgb(23.137255%,54.901961%,97.647059%);fill-opacity:1;" d="M 15.074219 18.179688 C 15.460938 18.554688 15.851562 18.925781 16.238281 19.296875 C 15.917969 19.820312 15.585938 20.335938 15.242188 20.847656 C 14.195312 22.214844 12.875 23.21875 11.285156 23.859375 C 10.847656 23.484375 10.457031 23.0625 10.121094 22.597656 C 10.179688 22.605469 10.234375 22.621094 10.292969 22.644531 C 12.503906 21.816406 14.097656 20.328125 15.074219 18.179688 Z M 15.074219 18.179688 "/>
</g>
<mask id="mask18">
  <g filter="url(#alpha)">
<rect x="0" y="0" width="40" height="30" style="fill:rgb(0%,0%,0%);fill-opacity:0.996078;stroke:none;"/>
  </g>
</mask>
<clipPath id="clip19">
  <rect x="0" y="0" width="40" height="30"/>
</clipPath>
<g id="surface59" clip-path="url(#clip19)">
<path style=" stroke:none;fill-rule:evenodd;fill:rgb(10.980392%,49.019608%,98.823529%);fill-opacity:1;" d="M 25.703125 17.402344 C 25.132812 21.207031 23.597656 24.527344 21.09375 27.355469 C 20.726562 27.386719 20.355469 27.402344 19.976562 27.402344 C 19.449219 27.414062 18.929688 27.378906 18.421875 27.304688 C 20.761719 25.234375 22.378906 22.695312 23.277344 19.683594 C 24.085938 18.925781 24.894531 18.164062 25.703125 17.402344 Z M 25.703125 17.402344 "/>
</g>
<mask id="mask19">
  <g filter="url(#alpha)">
<rect x="0" y="0" width="40" height="30" style="fill:rgb(0%,0%,0%);fill-opacity:0.996078;stroke:none;"/>
  </g>
</mask>
<clipPath id="clip20">
  <rect x="0" y="0" width="40" height="30"/>
</clipPath>
<g id="surface62" clip-path="url(#clip20)">
<path style=" stroke:none;fill-rule:evenodd;fill:rgb(13.333333%,50.196078%,98.431373%);fill-opacity:1;" d="M 21.964844 18.617188 C 22.3125 18.9375 22.652344 19.269531 22.984375 19.613281 C 23.074219 19.667969 23.171875 19.691406 23.277344 19.683594 C 22.378906 22.695312 20.761719 25.234375 18.421875 27.304688 C 17.742188 27.25 17.082031 27.121094 16.433594 26.917969 C 17.054688 26.398438 17.664062 25.847656 18.253906 25.265625 C 20.035156 23.363281 21.273438 21.144531 21.964844 18.617188 Z M 21.964844 18.617188 "/>
</g>
</defs>
<g id="surface1">
<use xlink:href="#surface5" mask="url(#mask0)"/>
<path style=" stroke:none;fill-rule:evenodd;fill:rgb(9.803922%,48.235294%,98.823529%);fill-opacity:1;" d="M 19.976562 2.546875 C 20.355469 2.53125 20.730469 2.550781 21.09375 2.597656 C 21.730469 3.382812 22.355469 4.207031 22.960938 5.074219 C 24.777344 7.945312 25.742188 11.085938 25.847656 14.492188 C 25.640625 14.734375 25.414062 14.960938 25.167969 15.167969 C 25.085938 10.269531 23.355469 6.0625 19.976562 2.546875 Z M 19.976562 2.546875 "/>
<use xlink:href="#surface8" mask="url(#mask1)"/>
<use xlink:href="#surface11" mask="url(#mask2)"/>
<use xlink:href="#surface14" mask="url(#mask3)"/>
<use xlink:href="#surface17" mask="url(#mask4)"/>
<use xlink:href="#surface20" mask="url(#mask5)"/>
<use xlink:href="#surface23" mask="url(#mask6)"/>
<use xlink:href="#surface26" mask="url(#mask7)"/>
<path style=" stroke:none;fill-rule:evenodd;fill:rgb(21.176471%,53.72549%,98.039216%);fill-opacity:1;" d="M 12.984375 4.683594 C 15.425781 6.023438 17.207031 7.964844 18.324219 10.507812 C 17.699219 10.691406 17.097656 10.949219 16.527344 11.285156 C 15.71875 9.445312 14.472656 7.964844 12.792969 6.84375 C 12.316406 6.542969 11.8125 6.292969 11.285156 6.09375 C 11.789062 5.542969 12.355469 5.074219 12.984375 4.683594 Z M 12.984375 4.683594 "/>
<use xlink:href="#surface29" mask="url(#mask8)"/>
<path style=" stroke:none;fill-rule:evenodd;fill:rgb(24.313725%,55.294118%,97.647059%);fill-opacity:1;" d="M 11.285156 6.09375 C 11.8125 6.292969 12.316406 6.542969 12.792969 6.84375 C 14.472656 7.964844 15.71875 9.445312 16.527344 11.285156 C 15.988281 11.644531 15.496094 12.0625 15.046875 12.546875 C 15.015625 12.628906 15.015625 12.710938 15.046875 12.792969 C 15.40625 13.230469 15.8125 13.617188 16.261719 13.957031 C 16.320312 13.9375 16.378906 13.914062 16.433594 13.882812 C 16.636719 13.671875 16.847656 13.46875 17.0625 13.277344 C 17.257812 14.402344 17.257812 15.523438 17.0625 16.652344 C 17.066406 16.703125 17.082031 16.742188 17.113281 16.773438 C 17.007812 16.949219 16.863281 17.054688 16.675781 17.085938 C 16.050781 16.472656 15.433594 15.847656 14.832031 15.21875 C 14.804688 12.015625 13.367188 9.710938 10.507812 8.300781 C 10.234375 8.195312 9.957031 8.089844 9.683594 7.984375 C 10.128906 7.28125 10.664062 6.652344 11.285156 6.09375 Z M 11.285156 6.09375 "/>
<path style=" stroke:none;fill-rule:evenodd;fill:rgb(26.27451%,56.470588%,97.254902%);fill-opacity:1;" d="M 9.683594 7.984375 C 9.957031 8.089844 10.234375 8.195312 10.507812 8.300781 C 13.367188 9.710938 14.804688 12.015625 14.832031 15.21875 C 14.539062 15.011719 14.28125 14.765625 14.054688 14.492188 C 13.851562 12.273438 12.8125 10.566406 10.945312 9.367188 C 10.410156 9.078125 9.859375 8.824219 9.296875 8.617188 C 9.390625 8.382812 9.519531 8.171875 9.683594 7.984375 Z M 9.683594 7.984375 "/>
<use xlink:href="#surface32" mask="url(#mask9)"/>
<use xlink:href="#surface35" mask="url(#mask10)"/>
<path style=" stroke:none;fill-rule:evenodd;fill:rgb(99.215686%,99.607843%,99.607843%);fill-opacity:1;" d="M 19.925781 10.316406 C 20.539062 10.316406 21.136719 10.398438 21.722656 10.558594 C 22.382812 10.738281 22.996094 11.015625 23.566406 11.382812 C 24.046875 11.691406 24.472656 12.0625 24.855469 12.5 C 24.886719 12.613281 24.886719 12.726562 24.855469 12.839844 C 24.546875 13.140625 24.246094 13.449219 23.957031 13.761719 C 23.859375 13.808594 23.761719 13.859375 23.664062 13.90625 C 23.355469 13.71875 23.082031 13.484375 22.839844 13.203125 C 22.683594 13.085938 22.523438 12.980469 22.355469 12.886719 C 21.789062 12.542969 21.175781 12.332031 20.507812 12.257812 C 19.210938 12.097656 18.0625 12.4375 17.0625 13.277344 C 16.847656 13.46875 16.636719 13.671875 16.433594 13.882812 C 16.378906 13.914062 16.320312 13.9375 16.261719 13.957031 C 15.8125 13.617188 15.40625 13.230469 15.046875 12.792969 C 15.015625 12.710938 15.015625 12.628906 15.046875 12.546875 C 15.496094 12.0625 15.988281 11.644531 16.527344 11.285156 C 17.097656 10.949219 17.699219 10.691406 18.324219 10.507812 C 18.851562 10.371094 19.382812 10.308594 19.925781 10.316406 Z M 19.925781 10.316406 "/>
<use xlink:href="#surface38" mask="url(#mask11)"/>
<use xlink:href="#surface41" mask="url(#mask12)"/>
<path style=" stroke:none;fill-rule:evenodd;fill:rgb(20.784314%,53.333333%,98.039216%);fill-opacity:1;" d="M 20.507812 12.257812 C 20.671875 13.074219 20.753906 13.898438 20.753906 14.734375 C 20.550781 14.539062 20.339844 14.351562 20.121094 14.175781 C 20.007812 14.140625 19.894531 14.140625 19.78125 14.175781 C 18.914062 15.066406 18.023438 15.933594 17.113281 16.773438 C 17.082031 16.742188 17.066406 16.703125 17.0625 16.652344 C 17.257812 15.523438 17.257812 14.402344 17.0625 13.277344 C 18.0625 12.4375 19.210938 12.097656 20.507812 12.257812 Z M 20.507812 12.257812 "/>
<path style=" stroke:none;fill-rule:evenodd;fill:rgb(16.078431%,51.372549%,98.431373%);fill-opacity:1;" d="M 20.507812 12.257812 C 21.175781 12.332031 21.789062 12.542969 22.355469 12.886719 C 22.292969 12.929688 22.261719 12.992188 22.257812 13.082031 C 22.402344 14.136719 22.417969 15.1875 22.304688 16.238281 C 21.757812 15.769531 21.238281 15.269531 20.753906 14.734375 C 20.753906 13.898438 20.671875 13.074219 20.507812 12.257812 Z M 20.507812 12.257812 "/>
<path style=" stroke:none;fill-rule:evenodd;fill:rgb(14.117647%,50.196078%,98.431373%);fill-opacity:1;" d="M 22.355469 12.886719 C 22.523438 12.980469 22.683594 13.085938 22.839844 13.203125 C 23.082031 13.484375 23.355469 13.71875 23.664062 13.90625 C 23.761719 13.859375 23.859375 13.808594 23.957031 13.761719 C 24.011719 14.648438 24.011719 15.523438 23.957031 16.382812 C 23.699219 16.625 23.441406 16.867188 23.179688 17.113281 C 22.871094 16.835938 22.578125 16.542969 22.304688 16.238281 C 22.417969 15.1875 22.402344 14.136719 22.257812 13.082031 C 22.261719 12.992188 22.292969 12.929688 22.355469 12.886719 Z M 22.355469 12.886719 "/>
<path style=" stroke:none;fill-rule:evenodd;fill:rgb(99.215686%,99.607843%,99.607843%);fill-opacity:1;" d="M 14.054688 14.492188 C 14.28125 14.765625 14.539062 15.011719 14.832031 15.21875 C 15.433594 15.847656 16.050781 16.472656 16.675781 17.085938 C 16.863281 17.054688 17.007812 16.949219 17.113281 16.773438 C 18.023438 15.933594 18.914062 15.066406 19.78125 14.175781 C 19.894531 14.140625 20.007812 14.140625 20.121094 14.175781 C 20.339844 14.351562 20.550781 14.539062 20.753906 14.734375 C 21.238281 15.269531 21.757812 15.769531 22.304688 16.238281 C 22.578125 16.542969 22.871094 16.835938 23.179688 17.113281 C 23.441406 16.867188 23.699219 16.625 23.957031 16.382812 C 24.378906 15.996094 24.78125 15.589844 25.167969 15.167969 C 25.414062 14.960938 25.640625 14.734375 25.847656 14.492188 C 26 14.414062 26.128906 14.308594 26.238281 14.175781 C 26.351562 14.140625 26.464844 14.140625 26.578125 14.175781 C 26.847656 14.46875 27.140625 14.738281 27.453125 14.976562 C 27.710938 15.21875 27.710938 15.460938 27.453125 15.703125 C 26.839844 16.234375 26.253906 16.800781 25.703125 17.402344 C 24.894531 18.164062 24.085938 18.925781 23.277344 19.683594 C 23.171875 19.691406 23.074219 19.667969 22.984375 19.613281 C 22.652344 19.269531 22.3125 18.9375 21.964844 18.617188 C 21.515625 18.179688 21.0625 17.742188 20.605469 17.304688 C 20.429688 17.085938 20.226562 16.894531 20 16.722656 C 19.566406 17.054688 19.167969 17.425781 18.8125 17.839844 C 18.203125 18.4375 17.589844 19.027344 16.964844 19.613281 C 16.859375 19.679688 16.746094 19.695312 16.625 19.660156 C 16.503906 19.527344 16.375 19.40625 16.238281 19.296875 C 15.851562 18.925781 15.460938 18.554688 15.074219 18.179688 C 14.683594 17.742188 14.261719 17.335938 13.8125 16.964844 C 13.386719 16.496094 12.933594 16.058594 12.453125 15.65625 C 12.242188 15.386719 12.277344 15.140625 12.546875 14.925781 C 12.84375 14.703125 13.121094 14.453125 13.375 14.175781 C 13.488281 14.140625 13.601562 14.140625 13.714844 14.175781 C 13.820312 14.289062 13.933594 14.394531 14.054688 14.492188 Z M 14.054688 14.492188 "/>
<use xlink:href="#surface44" mask="url(#mask13)"/>
<use xlink:href="#surface47" mask="url(#mask14)"/>
<path style=" stroke:none;fill-rule:evenodd;fill:rgb(18.039216%,52.54902%,98.039216%);fill-opacity:1;" d="M 20.605469 17.304688 C 19.824219 21.109375 17.816406 24.070312 14.585938 26.1875 C 14.011719 25.941406 13.480469 25.636719 12.984375 25.265625 C 15.976562 23.621094 17.917969 21.144531 18.8125 17.839844 C 19.167969 17.425781 19.566406 17.054688 20 16.722656 C 20.226562 16.894531 20.429688 17.085938 20.605469 17.304688 Z M 20.605469 17.304688 "/>
<path style=" stroke:none;fill-rule:evenodd;fill:rgb(25.490196%,56.078431%,97.254902%);fill-opacity:1;" d="M 13.8125 16.964844 C 14.261719 17.335938 14.683594 17.742188 15.074219 18.179688 C 14.097656 20.328125 12.503906 21.816406 10.292969 22.644531 C 10.234375 22.621094 10.179688 22.605469 10.121094 22.597656 C 9.792969 22.183594 9.503906 21.75 9.246094 21.285156 C 11.492188 20.609375 13.015625 19.167969 13.8125 16.964844 Z M 13.8125 16.964844 "/>
<use xlink:href="#surface50" mask="url(#mask15)"/>
<use xlink:href="#surface53" mask="url(#mask16)"/>
<use xlink:href="#surface56" mask="url(#mask17)"/>
<use xlink:href="#surface59" mask="url(#mask18)"/>
<use xlink:href="#surface62" mask="url(#mask19)"/>
</g>
</svg>
